M48
; DRILL file {KiCad 7.0.2} date Tue Aug 22 20:03:14 2023
; FORMAT={-:-/ absolute / metric / decimal}
; #@! TF.CreationDate,2023-08-22T20:03:14-07:00
; #@! TF.GenerationSoftware,Kicad,Pcbnew,7.0.2
; #@! TF.FileFunction,Plated,1,2,PTH
FMAT,2
METRIC
; #@! TA.AperFunction,Plated,PTH,ViaDrill
T1C0.250
; #@! TA.AperFunction,Plated,PTH,ViaDrill
T2C0.400
; #@! TA.AperFunction,Plated,PTH,ViaDrill
T3C0.500
; #@! TA.AperFunction,Plated,PTH,ComponentDrill
T4C0.600
; #@! TA.AperFunction,Plated,PTH,ComponentDrill
T5C1.500
; #@! TA.AperFunction,Plated,PTH,ViaDrill
T6C2.450
%
G90
G05
T1
X167.284Y-40.742
X167.64Y-41.529
X168.408Y-41.529
X169.158Y-41.529
X169.926Y-41.529
X170.316Y-40.775
T2
X113.03Y-80.645
X113.284Y-40.386
X113.665Y-50.165
X113.665Y-64.77
X113.665Y-93.98
X113.665Y-107.95
X113.665Y-120.65
X116.205Y-38.735
X118.11Y-129.54
X120.65Y-51.435
X124.46Y-58.42
X125.73Y-40.64
X128.905Y-130.81
X131.445Y-38.735
X132.715Y-59.055
X133.35Y-106.045
X133.35Y-118.745
X134.62Y-43.18
X134.62Y-85.725
X139.065Y-53.975
X140.335Y-59.055
X142.875Y-73.025
X143.51Y-52.07
X143.51Y-61.595
X146.05Y-43.18
X146.05Y-55.88
X146.05Y-129.54
X147.32Y-62.23
X147.32Y-86.995
X148.59Y-48.895
X148.59Y-119.38
X148.844Y-40.132
X150.495Y-43.815
X150.495Y-63.5
X150.495Y-74.93
X151.765Y-55.245
X152.4Y-50.8
X152.908Y-38.735
X153.035Y-88.265
X153.67Y-62.865
X153.67Y-66.04
X153.67Y-71.12
X154.94Y-39.37
X155.575Y-43.18
X156.21Y-58.42
X156.21Y-59.69
X157.48Y-54.61
X158.14Y-40.183
X161.29Y-37.465
X161.29Y-45.085
X161.925Y-34.29
X162.56Y-62.23
X162.56Y-73.025
X163.195Y-118.745
X164.465Y-48.895
X165.1Y-53.34
X166.37Y-86.995
X167.894Y-59.69
X169.545Y-55.245
X170.18Y-128.905
X171.45Y-45.72
X171.45Y-63.5
X172.085Y-68.58
X172.72Y-47.625
X177.8Y-39.37
X182.88Y-59.055
X182.88Y-73.025
X183.515Y-87.63
X184.15Y-40.005
X185.42Y-128.905
X186.055Y-51.435
X186.055Y-119.38
X186.944Y-37.338
T3
X131.445Y-71.755
X131.502Y-42.602
X147.32Y-39.37
X156.845Y-45.72
X160.02Y-53.34
X167.005Y-43.18
X170.18Y-43.18
X170.18Y-71.755
T5
X120.65Y-43.18
X120.65Y-62.23
X120.65Y-71.755
X120.65Y-81.28
X120.65Y-100.33
X120.65Y-109.855
X120.65Y-119.38
X127.0Y-45.72
X127.0Y-64.77
X127.0Y-74.295
X127.0Y-83.82
X127.0Y-102.87
X127.0Y-112.395
X127.0Y-121.92
X139.7Y-43.18
X139.7Y-62.23
X139.7Y-81.28
X139.7Y-100.33
X139.7Y-119.38
X146.05Y-45.72
X146.05Y-64.77
X146.05Y-83.82
X146.05Y-102.87
X146.05Y-121.92
X158.75Y-43.18
X158.75Y-62.23
X158.75Y-81.28
X158.75Y-100.33
X158.75Y-119.38
X165.1Y-45.72
X165.1Y-64.77
X165.1Y-83.82
X165.1Y-102.87
X165.1Y-121.92
X168.275Y-119.38
X174.625Y-121.92
X177.8Y-43.18
X177.8Y-62.23
X177.8Y-81.28
X177.8Y-100.33
X177.8Y-119.38
X184.15Y-45.72
X184.15Y-64.77
X184.15Y-83.82
X184.15Y-102.87
X184.15Y-121.92
T6
X114.3Y-35.56
X114.3Y-133.35
X189.23Y-35.56
X189.23Y-133.35
T4
X164.45Y-34.885G85X164.45Y-34.085
G05
X164.45Y-39.235G85X164.45Y-38.135
G05
X173.09Y-34.885G85X173.09Y-34.085
G05
X173.09Y-39.235G85X173.09Y-38.135
G05
T0
M30
