G04 #@! TF.GenerationSoftware,KiCad,Pcbnew,7.0.2*
G04 #@! TF.CreationDate,2023-08-22T20:01:55-07:00*
G04 #@! TF.ProjectId,4x5Macro-Numpad-USBC,3478354d-6163-4726-9f2d-4e756d706164,rev?*
G04 #@! TF.SameCoordinates,Original*
G04 #@! TF.FileFunction,Paste,Top*
G04 #@! TF.FilePolarity,Positive*
%FSLAX46Y46*%
G04 Gerber Fmt 4.6, Leading zero omitted, Abs format (unit mm)*
G04 Created by KiCad (PCBNEW 7.0.2) date 2023-08-22 20:01:55*
%MOMM*%
%LPD*%
G01*
G04 APERTURE LIST*
G04 Aperture macros list*
%AMRoundRect*
0 Rectangle with rounded corners*
0 $1 Rounding radius*
0 $2 $3 $4 $5 $6 $7 $8 $9 X,Y pos of 4 corners*
0 Add a 4 corners polygon primitive as box body*
4,1,4,$2,$3,$4,$5,$6,$7,$8,$9,$2,$3,0*
0 Add four circle primitives for the rounded corners*
1,1,$1+$1,$2,$3*
1,1,$1+$1,$4,$5*
1,1,$1+$1,$6,$7*
1,1,$1+$1,$8,$9*
0 Add four rect primitives between the rounded corners*
20,1,$1+$1,$2,$3,$4,$5,0*
20,1,$1+$1,$4,$5,$6,$7,0*
20,1,$1+$1,$6,$7,$8,$9,0*
20,1,$1+$1,$8,$9,$2,$3,0*%
G04 Aperture macros list end*
%ADD10RoundRect,0.250000X0.450000X-0.350000X0.450000X0.350000X-0.450000X0.350000X-0.450000X-0.350000X0*%
%ADD11RoundRect,0.250000X-0.475000X0.337500X-0.475000X-0.337500X0.475000X-0.337500X0.475000X0.337500X0*%
%ADD12R,1.000000X1.700000*%
%ADD13RoundRect,0.250000X-0.337500X-0.475000X0.337500X-0.475000X0.337500X0.475000X-0.337500X0.475000X0*%
%ADD14RoundRect,0.150000X-0.850000X-0.150000X0.850000X-0.150000X0.850000X0.150000X-0.850000X0.150000X0*%
%ADD15RoundRect,0.250000X-0.350000X-0.450000X0.350000X-0.450000X0.350000X0.450000X-0.350000X0.450000X0*%
%ADD16RoundRect,0.250000X-0.450000X0.350000X-0.450000X-0.350000X0.450000X-0.350000X0.450000X0.350000X0*%
%ADD17R,1.700000X1.000000*%
%ADD18R,0.600000X1.240000*%
%ADD19R,0.300000X1.240000*%
%ADD20RoundRect,0.250000X0.337500X0.475000X-0.337500X0.475000X-0.337500X-0.475000X0.337500X-0.475000X0*%
%ADD21RoundRect,0.250000X0.350000X0.450000X-0.350000X0.450000X-0.350000X-0.450000X0.350000X-0.450000X0*%
G04 APERTURE END LIST*
D10*
X158140400Y-34728400D03*
X158140400Y-36728400D03*
D11*
X147320000Y-36830000D03*
X147320000Y-34755000D03*
D10*
X135255000Y-75470000D03*
X135255000Y-77470000D03*
D12*
X134515000Y-46380000D03*
X134515000Y-52680000D03*
X130815000Y-46380000D03*
X130815000Y-52680000D03*
D13*
X154305000Y-48895000D03*
X152230000Y-48895000D03*
D10*
X170180000Y-75470000D03*
X170180000Y-77470000D03*
D14*
X154225000Y-52070000D03*
X154225000Y-53340000D03*
X154225000Y-54610000D03*
X154225000Y-55880000D03*
X154225000Y-57150000D03*
X154225000Y-58420000D03*
X154225000Y-59690000D03*
X154225000Y-60960000D03*
X149225000Y-60960000D03*
X149225000Y-59690000D03*
X149225000Y-58420000D03*
X149225000Y-57150000D03*
X149225000Y-55880000D03*
X149225000Y-54610000D03*
X149225000Y-53340000D03*
X149225000Y-52070000D03*
D15*
X139430000Y-56515000D03*
X137430000Y-56515000D03*
D16*
X150114000Y-36798000D03*
X150114000Y-34798000D03*
D10*
X173990000Y-75470000D03*
X173990000Y-77470000D03*
D16*
X188468000Y-41894000D03*
X188468000Y-39894000D03*
D17*
X170205000Y-53445000D03*
X176505000Y-53445000D03*
X170205000Y-57145000D03*
X176505000Y-57145000D03*
D10*
X131445000Y-75470000D03*
X131445000Y-77470000D03*
D18*
X171970000Y-39285000D03*
X171170000Y-39285000D03*
D19*
X170520000Y-39285000D03*
X169520000Y-39285000D03*
X168020000Y-39285000D03*
X167020000Y-39285000D03*
D18*
X166370000Y-39285000D03*
X165570000Y-39285000D03*
X165570000Y-39285000D03*
X166370000Y-39285000D03*
D19*
X167520000Y-39285000D03*
X168520000Y-39285000D03*
X169020000Y-39285000D03*
X170020000Y-39285000D03*
D18*
X171170000Y-39285000D03*
X171970000Y-39285000D03*
D20*
X152230000Y-45720000D03*
X154305000Y-45720000D03*
D10*
X154940000Y-34830000D03*
X154940000Y-36830000D03*
D21*
X172990000Y-50165000D03*
X174990000Y-50165000D03*
M02*
