G04 #@! TF.GenerationSoftware,KiCad,Pcbnew,7.0.2*
G04 #@! TF.CreationDate,2023-08-22T20:01:55-07:00*
G04 #@! TF.ProjectId,4x5Macro-Numpad-USBC,3478354d-6163-4726-9f2d-4e756d706164,rev?*
G04 #@! TF.SameCoordinates,Original*
G04 #@! TF.FileFunction,Legend,Bot*
G04 #@! TF.FilePolarity,Positive*
%FSLAX46Y46*%
G04 Gerber Fmt 4.6, Leading zero omitted, Abs format (unit mm)*
G04 Created by KiCad (PCBNEW 7.0.2) date 2023-08-22 20:01:55*
%MOMM*%
%LPD*%
G01*
G04 APERTURE LIST*
G04 Aperture macros list*
%AMRoundRect*
0 Rectangle with rounded corners*
0 $1 Rounding radius*
0 $2 $3 $4 $5 $6 $7 $8 $9 X,Y pos of 4 corners*
0 Add a 4 corners polygon primitive as box body*
4,1,4,$2,$3,$4,$5,$6,$7,$8,$9,$2,$3,0*
0 Add four circle primitives for the rounded corners*
1,1,$1+$1,$2,$3*
1,1,$1+$1,$4,$5*
1,1,$1+$1,$6,$7*
1,1,$1+$1,$8,$9*
0 Add four rect primitives between the rounded corners*
20,1,$1+$1,$2,$3,$4,$5,0*
20,1,$1+$1,$4,$5,$6,$7,0*
20,1,$1+$1,$6,$7,$8,$9,0*
20,1,$1+$1,$8,$9,$2,$3,0*%
G04 Aperture macros list end*
%ADD10C,0.120000*%
%ADD11O,1.000000X1.800000*%
%ADD12O,1.000000X2.100000*%
%ADD13C,0.650000*%
%ADD14C,2.200000*%
%ADD15C,4.000000*%
%ADD16RoundRect,0.250000X0.337500X0.475000X-0.337500X0.475000X-0.337500X-0.475000X0.337500X-0.475000X0*%
G04 APERTURE END LIST*
D10*
X135255000Y-117475000D02*
X135255000Y-131445000D01*
X135255000Y-131445000D02*
X149225000Y-131445000D01*
X149225000Y-117475000D02*
X135255000Y-117475000D01*
X149225000Y-131445000D02*
X149225000Y-117475000D01*
X154305000Y-41275000D02*
X154305000Y-55245000D01*
X154305000Y-55245000D02*
X168275000Y-55245000D01*
X168275000Y-41275000D02*
X154305000Y-41275000D01*
X168275000Y-55245000D02*
X168275000Y-41275000D01*
X154305000Y-79375000D02*
X154305000Y-93345000D01*
X154305000Y-93345000D02*
X168275000Y-93345000D01*
X168275000Y-79375000D02*
X154305000Y-79375000D01*
X168275000Y-93345000D02*
X168275000Y-79375000D01*
G36*
X159222475Y-33320291D02*
G01*
X159440943Y-33352698D01*
X159655182Y-33406362D01*
X159863130Y-33480767D01*
X160062783Y-33575196D01*
X160252220Y-33688740D01*
X160429614Y-33820305D01*
X160593260Y-33968624D01*
X160741579Y-34132269D01*
X160873144Y-34309664D01*
X160986688Y-34499100D01*
X161081117Y-34698753D01*
X161155521Y-34906701D01*
X161209186Y-35120940D01*
X161241592Y-35339408D01*
X161252429Y-35560000D01*
X161241592Y-35780592D01*
X161209186Y-35999060D01*
X161155521Y-36213299D01*
X161081117Y-36421247D01*
X160986688Y-36620900D01*
X160873144Y-36810336D01*
X160741579Y-36987731D01*
X160593260Y-37151376D01*
X160429614Y-37299695D01*
X160252220Y-37431260D01*
X160062783Y-37544804D01*
X159863130Y-37639233D01*
X159655182Y-37713638D01*
X159440943Y-37767302D01*
X159222475Y-37799709D01*
X159001883Y-37810546D01*
X158340425Y-37810546D01*
X156911675Y-37810546D01*
X155063825Y-37810546D01*
X153901775Y-37810546D01*
X150663275Y-37810546D01*
X148747162Y-37810546D01*
X147427950Y-37810546D01*
X146326225Y-37810546D01*
X144325975Y-37810546D01*
X142309850Y-37810546D01*
X140122275Y-37810546D01*
X138195050Y-37810546D01*
X135493125Y-37810546D01*
X134686675Y-37810546D01*
X131722812Y-37810546D01*
X129878137Y-37810546D01*
X128384300Y-37810546D01*
X126925387Y-37810546D01*
X124844175Y-37810546D01*
X122675650Y-37810546D01*
X120572212Y-37810546D01*
X119789575Y-37810546D01*
X119128117Y-37810546D01*
X118907525Y-37799709D01*
X118689057Y-37767302D01*
X118474818Y-37713638D01*
X118266870Y-37639233D01*
X118067217Y-37544804D01*
X117877780Y-37431260D01*
X117700386Y-37299695D01*
X117536740Y-37151376D01*
X117388421Y-36987731D01*
X117256856Y-36810336D01*
X117143312Y-36620900D01*
X117048883Y-36421247D01*
X116974479Y-36213299D01*
X116920814Y-35999060D01*
X116888408Y-35780592D01*
X116877571Y-35560000D01*
X116888408Y-35339408D01*
X116920814Y-35120940D01*
X116974479Y-34906701D01*
X117048883Y-34698753D01*
X117143312Y-34499100D01*
X117162073Y-34467800D01*
X119789575Y-34467800D01*
X119856250Y-34644012D01*
X119973725Y-34772600D01*
X120078500Y-34815462D01*
X120240425Y-34745612D01*
X120396000Y-34664650D01*
X120596025Y-34637662D01*
X120800812Y-34673381D01*
X121002425Y-34780537D01*
X121161175Y-34977387D01*
X121208800Y-35112722D01*
X121224675Y-35264725D01*
X121208800Y-35416728D01*
X121161175Y-35552062D01*
X120999250Y-35752087D01*
X120801606Y-35856863D01*
X120596025Y-35891787D01*
X120410287Y-35866387D01*
X120284875Y-35815587D01*
X120227725Y-35774312D01*
X120075325Y-35710813D01*
X119972931Y-35755262D01*
X119862600Y-35888612D01*
X119792750Y-36066412D01*
X119835612Y-36177538D01*
X119935625Y-36256913D01*
X120045162Y-36323587D01*
X120259475Y-36406138D01*
X120418622Y-36444237D01*
X120572212Y-36456937D01*
X120723819Y-36447016D01*
X120877012Y-36417250D01*
X121033381Y-36364069D01*
X121194512Y-36283900D01*
X121349691Y-36179919D01*
X121488200Y-36055300D01*
X121606866Y-35901313D01*
X121702512Y-35709225D01*
X121712063Y-35675887D01*
X121945400Y-35675887D01*
X121972387Y-35876089D01*
X122044883Y-36053360D01*
X122162887Y-36207700D01*
X122313700Y-36326762D01*
X122484621Y-36398200D01*
X122675650Y-36422012D01*
X123510675Y-36422012D01*
X123686887Y-36391850D01*
X123771025Y-36301362D01*
X123790075Y-36136262D01*
X123790075Y-35682237D01*
X123996450Y-35682237D01*
X124017087Y-35876309D01*
X124079000Y-36045775D01*
X124174250Y-36185078D01*
X124294900Y-36288662D01*
X124470231Y-36382149D01*
X124653322Y-36438240D01*
X124844175Y-36456937D01*
X124989431Y-36447809D01*
X125126750Y-36420425D01*
X125342650Y-36329938D01*
X125485525Y-36229925D01*
X125577600Y-36133088D01*
X125606175Y-36098162D01*
X125688725Y-35915600D01*
X125654594Y-35821541D01*
X125552200Y-35701287D01*
X125383925Y-35625087D01*
X125277562Y-35664775D01*
X125136275Y-35783838D01*
X125009275Y-35887025D01*
X124856875Y-35936237D01*
X124692833Y-35909426D01*
X124594408Y-35828993D01*
X124561600Y-35694937D01*
X124642562Y-35572700D01*
X124844175Y-35501262D01*
X124969587Y-35472291D01*
X125104525Y-35429825D01*
X125239462Y-35376247D01*
X125313752Y-35339337D01*
X125895100Y-35339337D01*
X125911372Y-35544125D01*
X125960187Y-35739388D01*
X126041547Y-35925125D01*
X126155450Y-36101337D01*
X126300706Y-36247784D01*
X126482475Y-36363275D01*
X126693216Y-36438284D01*
X126925387Y-36463287D01*
X127157162Y-36437887D01*
X127366712Y-36361687D01*
X127546497Y-36244212D01*
X127640472Y-36145787D01*
X129574925Y-36145787D01*
X129579687Y-36255325D01*
X129609850Y-36336287D01*
X129700734Y-36400581D01*
X129878137Y-36422012D01*
X130049984Y-36383119D01*
X130124200Y-36266437D01*
X130283744Y-36380738D01*
X130495675Y-36418838D01*
X130680531Y-36391144D01*
X130854097Y-36308065D01*
X131016375Y-36169600D01*
X131036466Y-36142613D01*
X131473575Y-36142613D01*
X131478337Y-36252150D01*
X131505325Y-36336287D01*
X131581922Y-36398200D01*
X131722812Y-36418838D01*
X131954587Y-36375975D01*
X132022850Y-36250562D01*
X132179616Y-36376769D01*
X132414962Y-36418838D01*
X132593644Y-36390968D01*
X132763507Y-36307360D01*
X132924550Y-36168013D01*
X133055078Y-35991800D01*
X133133394Y-35797596D01*
X133159500Y-35585400D01*
X133157335Y-35567937D01*
X133318250Y-35567937D01*
X133343826Y-35775018D01*
X133420556Y-35964460D01*
X133548437Y-36136262D01*
X133705247Y-36272082D01*
X133868760Y-36353574D01*
X134038975Y-36380738D01*
X134263606Y-36344225D01*
X134416800Y-36234687D01*
X134416800Y-36876038D01*
X134421562Y-36983988D01*
X134450137Y-37064950D01*
X134531100Y-37130037D01*
X134686675Y-37149088D01*
X134843837Y-37130037D01*
X134926387Y-37066537D01*
X134954962Y-36987163D01*
X134959725Y-36879212D01*
X134959725Y-36145787D01*
X135213725Y-36145787D01*
X135218487Y-36255325D01*
X135248650Y-36339463D01*
X135330406Y-36403756D01*
X135493125Y-36425187D01*
X135654256Y-36402963D01*
X135737600Y-36336287D01*
X135764587Y-36252150D01*
X135769350Y-36142613D01*
X135769350Y-35586988D01*
X135818562Y-35379819D01*
X135966200Y-35310762D01*
X136117012Y-35383787D01*
X136156700Y-35590162D01*
X136156700Y-36145787D01*
X136161462Y-36256913D01*
X136191625Y-36339463D01*
X136275762Y-36403756D01*
X136439275Y-36425187D01*
X136600406Y-36402963D01*
X136683750Y-36336287D01*
X136710737Y-36252150D01*
X136715500Y-36142613D01*
X136715500Y-35586988D01*
X136764712Y-35379819D01*
X136912350Y-35310762D01*
X137055225Y-35379819D01*
X137102850Y-35586988D01*
X137102850Y-36148962D01*
X137107612Y-36258500D01*
X137137775Y-36342638D01*
X137223500Y-36404550D01*
X137385425Y-36425187D01*
X137546556Y-36403756D01*
X137629900Y-36339463D01*
X137656887Y-36256913D01*
X137661378Y-36152137D01*
X137915650Y-36152137D01*
X137920412Y-36258500D01*
X137950575Y-36339463D01*
X138035506Y-36401375D01*
X138195050Y-36422012D01*
X138351419Y-36402963D01*
X138433175Y-36345812D01*
X138464925Y-36215638D01*
X138522075Y-36279138D01*
X138607800Y-36348987D01*
X138842750Y-36418838D01*
X139044362Y-36391850D01*
X139221633Y-36310888D01*
X139374562Y-36175950D01*
X139394926Y-36145787D01*
X139839700Y-36145787D01*
X139844462Y-36256913D01*
X139874625Y-36339463D01*
X139958762Y-36403756D01*
X140122275Y-36425187D01*
X140293725Y-36406138D01*
X140373100Y-36345812D01*
X140597643Y-36046657D01*
X140795022Y-35784190D01*
X140965237Y-35558412D01*
X141108289Y-35369324D01*
X141224176Y-35216924D01*
X141312900Y-35101212D01*
X141312900Y-36145787D01*
X141317662Y-36256913D01*
X141347825Y-36339463D01*
X141431962Y-36403756D01*
X141595475Y-36425187D01*
X141754225Y-36403756D01*
X141836775Y-36339463D01*
X141866937Y-36253738D01*
X141871700Y-36142613D01*
X141871700Y-35733037D01*
X142078075Y-35733037D01*
X142095537Y-35877500D01*
X142151100Y-35955287D01*
X142309850Y-35983863D01*
X143065500Y-35983863D01*
X143207581Y-35956875D01*
X143278225Y-35875912D01*
X143294100Y-35729862D01*
X143275050Y-35586988D01*
X143452850Y-35586988D01*
X143486981Y-35835828D01*
X143589375Y-36055300D01*
X143740584Y-36233100D01*
X143921162Y-36356925D01*
X144119997Y-36429553D01*
X144325975Y-36453763D01*
X144532350Y-36427966D01*
X144732375Y-36350575D01*
X144913747Y-36222781D01*
X145064162Y-36045775D01*
X145165366Y-35831066D01*
X145199100Y-35590162D01*
X145169467Y-35350979D01*
X145080567Y-35141429D01*
X144950703Y-34983737D01*
X145326100Y-34983737D01*
X145386425Y-35205987D01*
X145561050Y-35326637D01*
X145670587Y-35301237D01*
X145808700Y-35275837D01*
X145969037Y-35336162D01*
X146043650Y-35482212D01*
X146043650Y-36148962D01*
X146048412Y-36258500D01*
X146078575Y-36342638D01*
X146164300Y-36404550D01*
X146326225Y-36425187D01*
X146545300Y-36371212D01*
X146602450Y-36234687D01*
X146602450Y-36142613D01*
X146602450Y-36088637D01*
X146808825Y-36088637D01*
X146852481Y-36205319D01*
X146983450Y-36314063D01*
X147185062Y-36409313D01*
X147427950Y-36441063D01*
X147622331Y-36417426D01*
X147811772Y-36346518D01*
X147996275Y-36228337D01*
X148081713Y-36142613D01*
X148497925Y-36142613D01*
X148502687Y-36252150D01*
X148529675Y-36336287D01*
X148606272Y-36398200D01*
X148747162Y-36418838D01*
X148978937Y-36375975D01*
X149047200Y-36250562D01*
X149203966Y-36376769D01*
X149439312Y-36418838D01*
X149617994Y-36390968D01*
X149787857Y-36307360D01*
X149948900Y-36168013D01*
X149965364Y-36145787D01*
X150390225Y-36145787D01*
X150420387Y-36319619D01*
X150510875Y-36402963D01*
X150663275Y-36422012D01*
X150809325Y-36406138D01*
X150891875Y-36368038D01*
X150936325Y-36304538D01*
X150952200Y-36139437D01*
X150952200Y-35075812D01*
X151049831Y-35203209D01*
X151183975Y-35388550D01*
X151308594Y-35562778D01*
X151377650Y-35656837D01*
X151434800Y-35731450D01*
X151512587Y-35788600D01*
X151645937Y-35825112D01*
X151776112Y-35791775D01*
X151860250Y-35726687D01*
X151885650Y-35691762D01*
X151980106Y-35567541D01*
X152136475Y-35353625D01*
X152280937Y-35154791D01*
X152339675Y-35075812D01*
X152339675Y-36145787D01*
X152344437Y-36255325D01*
X152374600Y-36336287D01*
X152460325Y-36400581D01*
X152622250Y-36422012D01*
X152779412Y-36400581D01*
X152863550Y-36336287D01*
X152893712Y-36253738D01*
X152898475Y-36139437D01*
X152898475Y-35667950D01*
X153104850Y-35667950D01*
X153130250Y-35876794D01*
X153206450Y-36065178D01*
X153333450Y-36233100D01*
X153498197Y-36364510D01*
X153687639Y-36443356D01*
X153901775Y-36469637D01*
X154092275Y-36453057D01*
X154270075Y-36403315D01*
X154435175Y-36320412D01*
X154514550Y-36260087D01*
X154539950Y-36237862D01*
X154603291Y-36137850D01*
X154755850Y-36137850D01*
X154870150Y-36331525D01*
X155063825Y-36444237D01*
X155257500Y-36329938D01*
X155606750Y-35977512D01*
X155959175Y-36329938D01*
X156151262Y-36444237D01*
X156344937Y-36331525D01*
X156457975Y-36142613D01*
X156635450Y-36142613D01*
X156665612Y-36325175D01*
X156757687Y-36402963D01*
X156911675Y-36422012D01*
X157057725Y-36406138D01*
X157140275Y-36368038D01*
X157181550Y-36304538D01*
X157200600Y-36139437D01*
X157200600Y-35752087D01*
X158061025Y-35752087D01*
X158238031Y-35721925D01*
X158324550Y-35631437D01*
X158340425Y-35494912D01*
X158330900Y-35367912D01*
X158067375Y-34304287D01*
X158034038Y-34193162D01*
X157976887Y-34120137D01*
X157867350Y-34085212D01*
X157721300Y-34107437D01*
X157554612Y-34188400D01*
X157499050Y-34310637D01*
X157521275Y-34443987D01*
X157524450Y-34453512D01*
X157718125Y-35228212D01*
X157200600Y-35228212D01*
X157200600Y-34361437D01*
X157195837Y-34253487D01*
X157165675Y-34174112D01*
X157078362Y-34112200D01*
X156916437Y-34094737D01*
X156756100Y-34115375D01*
X156670375Y-34182050D01*
X156640212Y-34266187D01*
X156635450Y-34377312D01*
X156635450Y-36142613D01*
X156457975Y-36142613D01*
X156460825Y-36137850D01*
X156346525Y-35942587D01*
X155994100Y-35586988D01*
X156346525Y-35231387D01*
X156460825Y-35036125D01*
X156344937Y-34840862D01*
X156151262Y-34726562D01*
X155959175Y-34840862D01*
X155606750Y-35196462D01*
X155257500Y-34840862D01*
X155063825Y-34726562D01*
X154870150Y-34840862D01*
X154755850Y-35036125D01*
X154870150Y-35231387D01*
X155222575Y-35586988D01*
X154870150Y-35942587D01*
X154755850Y-36137850D01*
X154603291Y-36137850D01*
X154660600Y-36047362D01*
X154543125Y-35840987D01*
X154358975Y-35736213D01*
X154146250Y-35837812D01*
X153947812Y-35904487D01*
X153738262Y-35844163D01*
X153670000Y-35677475D01*
X153744612Y-35509200D01*
X153914475Y-35447287D01*
X154066875Y-35504437D01*
X154239912Y-35577462D01*
X154439937Y-35517137D01*
X154587575Y-35420300D01*
X154622500Y-35342512D01*
X154606625Y-35194081D01*
X154559000Y-34831337D01*
X154510581Y-34474150D01*
X154492325Y-34342387D01*
X154470100Y-34275712D01*
X154424062Y-34189987D01*
X154341512Y-34121725D01*
X154212925Y-34091562D01*
X153730325Y-34094737D01*
X153431875Y-34094737D01*
X153320750Y-34099500D01*
X153238200Y-34129662D01*
X153173906Y-34215387D01*
X153152475Y-34383662D01*
X153172319Y-34536856D01*
X153231850Y-34615437D01*
X153309637Y-34645600D01*
X153412825Y-34650362D01*
X153968450Y-34650362D01*
X154000200Y-34891662D01*
X153889075Y-34885312D01*
X153694694Y-34910536D01*
X153513719Y-34986207D01*
X153346150Y-35112325D01*
X153212094Y-35274956D01*
X153131661Y-35460164D01*
X153104850Y-35667950D01*
X152898475Y-35667950D01*
X152898475Y-34377312D01*
X152893712Y-34267775D01*
X152863550Y-34183637D01*
X152777825Y-34121725D01*
X152615900Y-34101087D01*
X152468262Y-34121725D01*
X152387300Y-34164587D01*
X152368250Y-34183637D01*
X151647525Y-35129787D01*
X151445976Y-34863468D01*
X151273129Y-34636011D01*
X151128984Y-34447416D01*
X151013541Y-34297683D01*
X150926800Y-34186812D01*
X150835916Y-34122519D01*
X150671212Y-34101087D01*
X150508891Y-34122519D01*
X150425150Y-34186812D01*
X150394987Y-34272537D01*
X150390225Y-34383662D01*
X150390225Y-36145787D01*
X149965364Y-36145787D01*
X150079428Y-35991800D01*
X150157744Y-35797596D01*
X150183850Y-35585400D01*
X150157568Y-35373381D01*
X150078722Y-35179706D01*
X149947312Y-35004375D01*
X149784506Y-34865910D01*
X149611468Y-34782831D01*
X149428200Y-34755137D01*
X149231350Y-34793237D01*
X149107525Y-34864675D01*
X149050375Y-34929762D01*
X148978144Y-34796412D01*
X148799550Y-34751962D01*
X148615400Y-34771012D01*
X148531262Y-34837687D01*
X148502687Y-34921825D01*
X148497925Y-35031362D01*
X148497925Y-36142613D01*
X148081713Y-36142613D01*
X148114544Y-36109672D01*
X148209000Y-35956875D01*
X148270912Y-35778281D01*
X148291550Y-35582225D01*
X148270912Y-35386963D01*
X148209000Y-35210750D01*
X148114544Y-35060334D01*
X147996275Y-34942462D01*
X147816711Y-34826046D01*
X147629386Y-34756196D01*
X147434300Y-34732912D01*
X147199350Y-34766250D01*
X147031075Y-34831337D01*
X146980275Y-34863087D01*
X146891375Y-34923412D01*
X146808825Y-35067875D01*
X146875500Y-35250437D01*
X146987419Y-35381406D01*
X147094575Y-35425062D01*
X147266025Y-35355212D01*
X147429537Y-35301237D01*
X147627975Y-35377437D01*
X147720050Y-35588575D01*
X147631150Y-35798125D01*
X147442237Y-35872737D01*
X147254912Y-35814000D01*
X147113625Y-35755262D01*
X147008056Y-35797331D01*
X146881850Y-35923537D01*
X146808825Y-36088637D01*
X146602450Y-36088637D01*
X146602450Y-35028187D01*
X146597687Y-34918650D01*
X146570700Y-34837687D01*
X146486562Y-34773394D01*
X146323050Y-34751962D01*
X146168269Y-34770219D01*
X146084925Y-34824987D01*
X146050000Y-34929762D01*
X146003962Y-34875787D01*
X145875375Y-34790062D01*
X145702337Y-34736087D01*
X145576925Y-34744025D01*
X145465800Y-34771012D01*
X145365787Y-34836100D01*
X145326100Y-34983737D01*
X144950703Y-34983737D01*
X144932400Y-34961512D01*
X144746133Y-34823929D01*
X144542933Y-34741379D01*
X144322800Y-34713862D01*
X144103019Y-34741203D01*
X143900878Y-34823224D01*
X143716375Y-34959925D01*
X143569972Y-35138960D01*
X143482131Y-35347981D01*
X143452850Y-35586988D01*
X143275050Y-35586988D01*
X143214725Y-35510788D01*
X143062325Y-35482212D01*
X142306675Y-35482212D01*
X142165387Y-35508406D01*
X142097125Y-35586988D01*
X142078075Y-35733037D01*
X141871700Y-35733037D01*
X141871700Y-34370962D01*
X141841537Y-34194750D01*
X141751050Y-34120137D01*
X141595475Y-34101087D01*
X141444662Y-34118550D01*
X141366875Y-34158237D01*
X141293850Y-34240787D01*
X141082889Y-34527331D01*
X140896622Y-34779479D01*
X140735050Y-34997231D01*
X140598172Y-35180587D01*
X140485989Y-35329548D01*
X140398500Y-35444112D01*
X140398500Y-34370962D01*
X140368337Y-34194750D01*
X140277850Y-34120137D01*
X140127037Y-34101087D01*
X139980987Y-34116962D01*
X139898437Y-34155062D01*
X139858750Y-34221737D01*
X139839700Y-34383662D01*
X139839700Y-36145787D01*
X139394926Y-36145787D01*
X139491861Y-36002207D01*
X139562240Y-35804828D01*
X139585700Y-35583812D01*
X139585700Y-35028187D01*
X139580937Y-34917062D01*
X139553950Y-34834512D01*
X139469812Y-34770219D01*
X139306300Y-34748787D01*
X139130087Y-34778950D01*
X139045950Y-34869437D01*
X139026900Y-35031362D01*
X139026900Y-35586988D01*
X138952287Y-35790187D01*
X138752262Y-35863212D01*
X138549062Y-35787013D01*
X138471275Y-35586988D01*
X138471275Y-35025012D01*
X138466512Y-34915475D01*
X138436350Y-34831337D01*
X138354594Y-34769425D01*
X138191875Y-34748787D01*
X138030744Y-34770219D01*
X137947400Y-34834512D01*
X137920412Y-34918650D01*
X137915650Y-35028187D01*
X137915650Y-36152137D01*
X137661378Y-36152137D01*
X137661650Y-36145787D01*
X137661650Y-35028187D01*
X137656887Y-34918650D01*
X137626725Y-34837687D01*
X137546556Y-34773394D01*
X137401300Y-34751962D01*
X137169525Y-34809112D01*
X137115550Y-34974212D01*
X136951244Y-34805144D01*
X136756775Y-34748787D01*
X136559219Y-34779479D01*
X136398353Y-34871554D01*
X136274175Y-35025012D01*
X136190037Y-34925000D01*
X136032875Y-34810700D01*
X135810625Y-34748787D01*
X135577262Y-34797603D01*
X135385175Y-34944050D01*
X135289925Y-35102624D01*
X135232775Y-35317994D01*
X135213725Y-35590162D01*
X135213725Y-36145787D01*
X134959725Y-36145787D01*
X134959725Y-35025012D01*
X134954962Y-34917062D01*
X134927975Y-34837687D01*
X134852569Y-34773394D01*
X134715250Y-34751962D01*
X134488237Y-34794825D01*
X134419975Y-34920237D01*
X134264797Y-34796412D01*
X134040562Y-34755137D01*
X133871053Y-34782301D01*
X133707540Y-34863793D01*
X133550025Y-34999612D01*
X133421261Y-35171415D01*
X133344003Y-35360857D01*
X133318250Y-35567937D01*
X133157335Y-35567937D01*
X133133218Y-35373381D01*
X133054372Y-35179706D01*
X132922962Y-35004375D01*
X132760156Y-34865910D01*
X132587118Y-34782831D01*
X132403850Y-34755137D01*
X132207000Y-34793237D01*
X132083175Y-34864675D01*
X132026025Y-34929762D01*
X131953794Y-34796412D01*
X131775200Y-34751962D01*
X131591050Y-34771012D01*
X131506912Y-34837687D01*
X131478337Y-34921825D01*
X131473575Y-35031362D01*
X131473575Y-36142613D01*
X131036466Y-36142613D01*
X131146903Y-35994269D01*
X131225219Y-35800594D01*
X131251325Y-35588575D01*
X131225043Y-35376379D01*
X131146197Y-35182175D01*
X131014787Y-35005962D01*
X130851981Y-34866615D01*
X130678943Y-34783007D01*
X130495675Y-34755137D01*
X130286919Y-34794825D01*
X130130550Y-34913887D01*
X130130550Y-34247137D01*
X130125787Y-34137600D01*
X130097212Y-34055050D01*
X130013075Y-33989962D01*
X129852737Y-33970912D01*
X129692400Y-33989962D01*
X129608262Y-34056637D01*
X129579687Y-34140775D01*
X129574925Y-34250312D01*
X129574925Y-36145787D01*
X127640472Y-36145787D01*
X127688975Y-36094988D01*
X127801489Y-35921156D01*
X127881856Y-35736213D01*
X127882637Y-35733037D01*
X128152525Y-35733037D01*
X128169987Y-35877500D01*
X128225550Y-35955287D01*
X128384300Y-35983863D01*
X129139950Y-35983863D01*
X129282031Y-35956875D01*
X129352675Y-35875912D01*
X129368550Y-35729862D01*
X129349500Y-35586988D01*
X129289175Y-35510788D01*
X129136775Y-35482212D01*
X128381125Y-35482212D01*
X128239837Y-35508406D01*
X128171575Y-35586988D01*
X128152525Y-35733037D01*
X127882637Y-35733037D01*
X127930077Y-35540156D01*
X127946150Y-35332987D01*
X127946150Y-34377312D01*
X127941387Y-34264600D01*
X127911225Y-34180462D01*
X127825500Y-34113787D01*
X127663575Y-34094737D01*
X127501650Y-34113787D01*
X127419100Y-34180462D01*
X127381000Y-34380487D01*
X127381000Y-35332987D01*
X127357187Y-35521900D01*
X127285750Y-35701287D01*
X127142875Y-35844163D01*
X126917450Y-35898137D01*
X126715044Y-35855275D01*
X126571375Y-35726687D01*
X126485650Y-35541744D01*
X126457075Y-35329812D01*
X126457075Y-34358262D01*
X126425325Y-34183637D01*
X126333250Y-34113787D01*
X126182437Y-34094737D01*
X126037975Y-34110612D01*
X125955425Y-34148712D01*
X125914150Y-34215387D01*
X125895100Y-34380487D01*
X125895100Y-35339337D01*
X125313752Y-35339337D01*
X125364875Y-35313937D01*
X125475603Y-35227816D01*
X125566487Y-35102800D01*
X125627209Y-34943653D01*
X125647450Y-34755137D01*
X125624343Y-34576808D01*
X125555022Y-34414354D01*
X125439487Y-34267775D01*
X125284089Y-34152240D01*
X125095176Y-34082919D01*
X124872750Y-34059812D01*
X124690584Y-34072116D01*
X124525087Y-34109025D01*
X124307600Y-34209037D01*
X124228225Y-34269362D01*
X124129800Y-34424937D01*
X124206000Y-34599562D01*
X124315537Y-34718625D01*
X124428250Y-34758312D01*
X124593350Y-34694812D01*
X124629862Y-34663062D01*
X124679075Y-34621787D01*
X124848937Y-34580512D01*
X125020387Y-34629725D01*
X125088650Y-34766250D01*
X125007687Y-34907537D01*
X124806075Y-34980562D01*
X124679869Y-35004772D01*
X124542550Y-35039300D01*
X124405231Y-35083353D01*
X124279025Y-35136137D01*
X124168297Y-35214322D01*
X124077412Y-35334575D01*
X124016691Y-35492134D01*
X123996450Y-35682237D01*
X123790075Y-35682237D01*
X123790075Y-34374137D01*
X123785312Y-34263012D01*
X123755150Y-34180462D01*
X123671012Y-34116169D01*
X123507500Y-34094737D01*
X122707400Y-34094737D01*
X122523250Y-34117315D01*
X122360267Y-34185049D01*
X122218450Y-34297937D01*
X122103797Y-34444693D01*
X122035006Y-34609793D01*
X122012075Y-34793237D01*
X122042237Y-34994056D01*
X122132725Y-35177412D01*
X122028656Y-35331576D01*
X121966214Y-35497735D01*
X121945400Y-35675887D01*
X121712063Y-35675887D01*
X121765616Y-35488959D01*
X121786650Y-35250437D01*
X121766012Y-35014297D01*
X121704100Y-34801175D01*
X121610041Y-34617025D01*
X121492962Y-34467800D01*
X121355247Y-34346753D01*
X121199275Y-34247137D01*
X120991489Y-34151887D01*
X120782997Y-34094737D01*
X120573800Y-34075687D01*
X120423384Y-34087197D01*
X120270587Y-34121725D01*
X120037225Y-34215387D01*
X119961025Y-34259837D01*
X119872125Y-34316987D01*
X119789575Y-34467800D01*
X117162073Y-34467800D01*
X117256856Y-34309664D01*
X117388421Y-34132269D01*
X117536740Y-33968624D01*
X117700386Y-33820305D01*
X117877780Y-33688740D01*
X118067217Y-33575196D01*
X118266870Y-33480767D01*
X118474818Y-33406362D01*
X118689057Y-33352698D01*
X118907525Y-33320291D01*
X119128117Y-33309454D01*
X119789575Y-33309454D01*
X158340425Y-33309454D01*
X159001883Y-33309454D01*
X159222475Y-33320291D01*
G37*
G36*
X123228100Y-35860038D02*
G01*
X122707400Y-35860038D01*
X122557381Y-35806062D01*
X122507375Y-35644137D01*
X122524837Y-35523488D01*
X122583575Y-35459987D01*
X122761375Y-35434587D01*
X122932825Y-35390138D01*
X122989975Y-35207575D01*
X122931237Y-35025012D01*
X122735975Y-34980562D01*
X122583575Y-34913887D01*
X122574050Y-34799587D01*
X122626437Y-34688462D01*
X122783600Y-34656712D01*
X123228100Y-34656712D01*
X123228100Y-35860038D01*
G37*
G36*
X144538700Y-35352037D02*
G01*
X144612519Y-35450066D01*
X144637125Y-35585400D01*
X144611725Y-35720337D01*
X144535525Y-35817175D01*
X144329150Y-35894963D01*
X144119600Y-35815587D01*
X144041019Y-35717162D01*
X144014825Y-35580637D01*
X144039431Y-35444906D01*
X144113250Y-35348862D01*
X144325975Y-35272662D01*
X144538700Y-35352037D01*
G37*
G36*
X130619500Y-35398075D02*
G01*
X130695700Y-35590162D01*
X130613150Y-35780662D01*
X130413125Y-35866387D01*
X130217862Y-35780662D01*
X130140075Y-35591750D01*
X130214687Y-35399663D01*
X130416300Y-35310762D01*
X130619500Y-35398075D01*
G37*
G36*
X132526087Y-35396487D02*
G01*
X132603875Y-35590162D01*
X132521325Y-35779075D01*
X132321300Y-35863212D01*
X132126037Y-35777487D01*
X132048250Y-35588575D01*
X132122862Y-35396487D01*
X132322887Y-35307587D01*
X132526087Y-35396487D01*
G37*
G36*
X134331075Y-35383787D02*
G01*
X134404100Y-35571112D01*
X134329487Y-35756850D01*
X134138987Y-35840987D01*
X133942137Y-35758438D01*
X133861175Y-35571112D01*
X133937375Y-35382200D01*
X134135812Y-35298062D01*
X134331075Y-35383787D01*
G37*
G36*
X149550437Y-35396487D02*
G01*
X149628225Y-35590162D01*
X149545675Y-35779075D01*
X149345650Y-35863212D01*
X149150387Y-35777487D01*
X149072600Y-35588575D01*
X149147212Y-35396487D01*
X149347237Y-35307587D01*
X149550437Y-35396487D01*
G37*
X116205000Y-60325000D02*
X116205000Y-74295000D01*
X116205000Y-74295000D02*
X130175000Y-74295000D01*
X130175000Y-60325000D02*
X116205000Y-60325000D01*
X130175000Y-74295000D02*
X130175000Y-60325000D01*
X135255000Y-60325000D02*
X135255000Y-74295000D01*
X135255000Y-74295000D02*
X149225000Y-74295000D01*
X149225000Y-60325000D02*
X135255000Y-60325000D01*
X149225000Y-74295000D02*
X149225000Y-60325000D01*
X116205000Y-41275000D02*
X116205000Y-55245000D01*
X116205000Y-55245000D02*
X130175000Y-55245000D01*
X130175000Y-41275000D02*
X116205000Y-41275000D01*
X130175000Y-55245000D02*
X130175000Y-41275000D01*
G36*
X186012698Y-33108888D02*
G01*
X186103131Y-33122302D01*
X186191814Y-33144516D01*
X186277893Y-33175316D01*
X186360538Y-33214404D01*
X186438953Y-33261405D01*
X186512385Y-33315865D01*
X186580125Y-33377261D01*
X186641520Y-33445001D01*
X186695981Y-33518432D01*
X186742981Y-33596848D01*
X186782070Y-33679493D01*
X186812869Y-33765571D01*
X186835083Y-33854254D01*
X186848497Y-33944687D01*
X186852983Y-34036000D01*
X186848497Y-34127313D01*
X186835083Y-34217746D01*
X186812869Y-34306429D01*
X186782070Y-34392507D01*
X186742981Y-34475152D01*
X186695981Y-34553568D01*
X186641520Y-34626999D01*
X186580125Y-34694739D01*
X186512385Y-34756135D01*
X186438953Y-34810595D01*
X186360538Y-34857596D01*
X186277893Y-34896684D01*
X186191814Y-34927484D01*
X186103131Y-34949698D01*
X186012698Y-34963112D01*
X185921385Y-34967598D01*
X185590656Y-34967598D01*
X185080275Y-34967598D01*
X184039669Y-34967598D01*
X182744269Y-34967598D01*
X181765575Y-34967598D01*
X180385244Y-34967598D01*
X179396231Y-34967598D01*
X178721544Y-34967598D01*
X178137344Y-34967598D01*
X177806615Y-34967598D01*
X177715302Y-34963112D01*
X177624869Y-34949698D01*
X177536186Y-34927484D01*
X177450108Y-34896684D01*
X177367462Y-34857596D01*
X177289047Y-34810595D01*
X177215615Y-34756135D01*
X177147875Y-34694739D01*
X177086480Y-34626999D01*
X177032019Y-34553568D01*
X176985019Y-34475152D01*
X176945930Y-34392507D01*
X176915131Y-34306429D01*
X176892917Y-34217746D01*
X176879503Y-34127313D01*
X176875017Y-34036000D01*
X176875407Y-34028062D01*
X178137344Y-34028062D01*
X178148010Y-34144793D01*
X178180008Y-34252892D01*
X178233338Y-34352359D01*
X178308000Y-34443194D01*
X178397843Y-34518898D01*
X178496714Y-34572972D01*
X178604614Y-34605416D01*
X178721544Y-34616231D01*
X179012056Y-34616231D01*
X179090638Y-34606309D01*
X179132706Y-34576544D01*
X179151161Y-34478119D01*
X179254944Y-34478119D01*
X179269628Y-34566225D01*
X179313681Y-34608294D01*
X179396231Y-34617819D01*
X180024881Y-34617819D01*
X180112988Y-34602737D01*
X180155056Y-34557494D01*
X180161873Y-34499550D01*
X180267769Y-34499550D01*
X180275706Y-34567019D01*
X180302694Y-34601944D01*
X180385244Y-34617819D01*
X180956744Y-34617819D01*
X181044850Y-34602737D01*
X181086919Y-34557494D01*
X181093269Y-34503519D01*
X181585394Y-34503519D01*
X181610000Y-34559081D01*
X181683819Y-34605119D01*
X181765575Y-34627344D01*
X181816375Y-34612263D01*
X181845744Y-34581306D01*
X181866558Y-34535974D01*
X181907833Y-34440195D01*
X181969569Y-34293969D01*
X182018781Y-34297144D01*
X182218806Y-34297144D01*
X182218806Y-34476531D01*
X182221188Y-34531300D01*
X182236269Y-34573369D01*
X182278338Y-34605516D01*
X182360094Y-34616231D01*
X182448200Y-34601547D01*
X182490269Y-34557494D01*
X182499428Y-34478119D01*
X182602981Y-34478119D01*
X182617666Y-34566225D01*
X182661719Y-34608294D01*
X182744269Y-34617819D01*
X183372919Y-34617819D01*
X183461025Y-34602737D01*
X183503094Y-34557494D01*
X183512619Y-34476531D01*
X183512619Y-34246344D01*
X183615806Y-34246344D01*
X183626125Y-34343380D01*
X183657081Y-34428113D01*
X183704706Y-34497764D01*
X183765031Y-34549556D01*
X183852697Y-34596299D01*
X183944242Y-34624345D01*
X184039669Y-34633694D01*
X184112297Y-34629130D01*
X184180956Y-34615437D01*
X184288906Y-34570194D01*
X184360344Y-34520188D01*
X184406381Y-34471769D01*
X184420669Y-34454306D01*
X184461944Y-34363025D01*
X184444878Y-34315995D01*
X184393681Y-34255869D01*
X184309544Y-34217769D01*
X184256363Y-34237612D01*
X184185719Y-34297144D01*
X184122219Y-34348737D01*
X184046019Y-34373344D01*
X183963998Y-34359938D01*
X183914785Y-34319722D01*
X183898381Y-34252694D01*
X183938863Y-34191575D01*
X184039669Y-34155856D01*
X184102375Y-34141370D01*
X184169844Y-34120137D01*
X184237313Y-34093348D01*
X184274457Y-34074894D01*
X184565131Y-34074894D01*
X184573267Y-34177287D01*
X184597675Y-34274919D01*
X184638355Y-34367787D01*
X184695306Y-34455894D01*
X184767934Y-34529117D01*
X184858819Y-34586862D01*
X184964189Y-34624367D01*
X185080275Y-34636869D01*
X185196163Y-34624169D01*
X185300938Y-34586069D01*
X185390830Y-34527331D01*
X185462069Y-34452719D01*
X185518326Y-34365803D01*
X185558509Y-34273331D01*
X185582620Y-34175303D01*
X185590656Y-34071719D01*
X185590656Y-33593881D01*
X185588275Y-33537525D01*
X185573194Y-33495456D01*
X185530331Y-33462119D01*
X185449369Y-33452594D01*
X185368406Y-33462119D01*
X185327131Y-33495456D01*
X185308081Y-33595469D01*
X185308081Y-34071719D01*
X185296175Y-34166175D01*
X185260456Y-34255869D01*
X185189019Y-34327306D01*
X185076306Y-34354294D01*
X184975103Y-34332863D01*
X184903269Y-34268569D01*
X184860406Y-34176097D01*
X184846119Y-34070131D01*
X184846119Y-33584356D01*
X184830244Y-33497044D01*
X184784206Y-33462119D01*
X184708800Y-33452594D01*
X184636569Y-33460531D01*
X184595294Y-33479581D01*
X184574656Y-33512919D01*
X184565131Y-33595469D01*
X184565131Y-34074894D01*
X184274457Y-34074894D01*
X184300019Y-34062194D01*
X184355383Y-34019133D01*
X184400825Y-33956625D01*
X184431186Y-33877052D01*
X184441306Y-33782794D01*
X184429753Y-33693629D01*
X184395092Y-33612402D01*
X184337325Y-33539112D01*
X184259626Y-33481345D01*
X184165169Y-33446685D01*
X184053956Y-33435131D01*
X183962873Y-33441283D01*
X183880125Y-33459737D01*
X183771381Y-33509744D01*
X183731694Y-33539906D01*
X183682481Y-33617694D01*
X183720581Y-33705006D01*
X183775350Y-33764538D01*
X183831706Y-33784381D01*
X183914256Y-33752631D01*
X183932513Y-33736756D01*
X183957119Y-33716119D01*
X184042050Y-33695481D01*
X184127775Y-33720087D01*
X184161906Y-33788350D01*
X184121425Y-33858994D01*
X184020619Y-33895506D01*
X183957516Y-33907611D01*
X183888856Y-33924875D01*
X183820197Y-33946902D01*
X183757094Y-33973294D01*
X183701730Y-34012386D01*
X183656288Y-34072512D01*
X183625927Y-34151292D01*
X183615806Y-34246344D01*
X183512619Y-34246344D01*
X183512619Y-33593881D01*
X183482456Y-33483550D01*
X183368156Y-33454181D01*
X182742681Y-33454181D01*
X182687913Y-33456562D01*
X182645844Y-33471644D01*
X182613697Y-33513712D01*
X182602981Y-33595469D01*
X182617666Y-33683575D01*
X182661719Y-33725644D01*
X182744269Y-33735169D01*
X183231631Y-33735169D01*
X183231631Y-33895506D01*
X182917306Y-33895506D01*
X182862538Y-33897887D01*
X182820469Y-33912969D01*
X182788322Y-33955037D01*
X182777606Y-34036794D01*
X182792688Y-34124900D01*
X182837931Y-34166969D01*
X182920481Y-34176494D01*
X183231631Y-34176494D01*
X183231631Y-34336831D01*
X182742681Y-34336831D01*
X182687913Y-34339213D01*
X182645844Y-34354294D01*
X182613697Y-34396362D01*
X182602981Y-34478119D01*
X182499428Y-34478119D01*
X182499794Y-34474944D01*
X182499794Y-33593881D01*
X182497413Y-33539112D01*
X182482331Y-33497044D01*
X182440263Y-33464897D01*
X182358506Y-33454181D01*
X182015606Y-33454181D01*
X181923355Y-33465470D01*
X181832867Y-33499337D01*
X181744144Y-33555781D01*
X181686200Y-33613725D01*
X181639369Y-33689131D01*
X181608413Y-33778031D01*
X181598094Y-33876456D01*
X181611323Y-33988992D01*
X181651010Y-34087417D01*
X181717156Y-34171731D01*
X181689640Y-34236819D01*
X181653656Y-34319898D01*
X181609206Y-34420969D01*
X181585394Y-34503519D01*
X181093269Y-34503519D01*
X181096444Y-34476531D01*
X181096444Y-33593881D01*
X181094063Y-33539112D01*
X181078981Y-33497044D01*
X181036913Y-33464897D01*
X180955156Y-33454181D01*
X180866653Y-33468866D01*
X180823394Y-33512919D01*
X180815456Y-33595469D01*
X180815456Y-34382869D01*
X180383656Y-34382869D01*
X180307456Y-34394775D01*
X180275706Y-34432081D01*
X180267769Y-34499550D01*
X180161873Y-34499550D01*
X180164581Y-34476531D01*
X180164581Y-33593881D01*
X180134419Y-33483550D01*
X180020119Y-33454181D01*
X179394644Y-33454181D01*
X179339875Y-33456562D01*
X179297806Y-33471644D01*
X179265659Y-33513712D01*
X179254944Y-33595469D01*
X179269628Y-33683575D01*
X179313681Y-33725644D01*
X179396231Y-33735169D01*
X179883594Y-33735169D01*
X179883594Y-33895506D01*
X179569269Y-33895506D01*
X179514500Y-33897887D01*
X179472431Y-33912969D01*
X179440284Y-33955037D01*
X179429569Y-34036794D01*
X179444650Y-34124900D01*
X179489894Y-34166969D01*
X179572444Y-34176494D01*
X179883594Y-34176494D01*
X179883594Y-34336831D01*
X179394644Y-34336831D01*
X179339875Y-34339213D01*
X179297806Y-34354294D01*
X179265659Y-34396362D01*
X179254944Y-34478119D01*
X179151161Y-34478119D01*
X179151756Y-34474944D01*
X179151756Y-33592294D01*
X179149375Y-33536731D01*
X179134294Y-33495456D01*
X179092225Y-33463309D01*
X179010469Y-33452594D01*
X178716781Y-33454181D01*
X178605160Y-33464550D01*
X178500484Y-33495655D01*
X178402754Y-33547496D01*
X178311969Y-33620075D01*
X178235570Y-33707784D01*
X178181000Y-33805019D01*
X178148258Y-33911778D01*
X178137344Y-34028062D01*
X176875407Y-34028062D01*
X176879503Y-33944687D01*
X176892917Y-33854254D01*
X176915131Y-33765571D01*
X176945930Y-33679493D01*
X176985019Y-33596848D01*
X177032019Y-33518432D01*
X177086480Y-33445001D01*
X177147875Y-33377261D01*
X177215615Y-33315865D01*
X177289047Y-33261405D01*
X177367462Y-33214404D01*
X177450108Y-33175316D01*
X177536186Y-33144516D01*
X177624869Y-33122302D01*
X177715302Y-33108888D01*
X177806615Y-33104402D01*
X178137344Y-33104402D01*
X185590656Y-33104402D01*
X185921385Y-33104402D01*
X186012698Y-33108888D01*
G37*
G36*
X178870769Y-34335244D02*
G01*
X178716781Y-34335244D01*
X178608038Y-34314011D01*
X178510406Y-34250312D01*
X178441350Y-34154467D01*
X178418331Y-34036794D01*
X178440755Y-33918723D01*
X178508025Y-33821687D01*
X178605458Y-33756798D01*
X178718369Y-33735169D01*
X178870769Y-33735169D01*
X178870769Y-34335244D01*
G37*
G36*
X182218806Y-34016156D02*
G01*
X182015606Y-34016156D01*
X181923531Y-33981231D01*
X181877494Y-33876456D01*
X181923531Y-33770887D01*
X182018781Y-33735169D01*
X182218806Y-33735169D01*
X182218806Y-34016156D01*
G37*
X154305000Y-117475000D02*
X154305000Y-131445000D01*
X154305000Y-131445000D02*
X168275000Y-131445000D01*
X168275000Y-117475000D02*
X154305000Y-117475000D01*
X168275000Y-131445000D02*
X168275000Y-117475000D01*
X135255000Y-98425000D02*
X135255000Y-112395000D01*
X135255000Y-112395000D02*
X149225000Y-112395000D01*
X149225000Y-98425000D02*
X135255000Y-98425000D01*
X149225000Y-112395000D02*
X149225000Y-98425000D01*
X173355000Y-79375000D02*
X173355000Y-93345000D01*
X173355000Y-93345000D02*
X187325000Y-93345000D01*
X187325000Y-79375000D02*
X173355000Y-79375000D01*
X187325000Y-93345000D02*
X187325000Y-79375000D01*
X173355000Y-98425000D02*
X173355000Y-112395000D01*
X173355000Y-112395000D02*
X187325000Y-112395000D01*
X187325000Y-98425000D02*
X173355000Y-98425000D01*
X187325000Y-112395000D02*
X187325000Y-98425000D01*
X116205000Y-98425000D02*
X116205000Y-112395000D01*
X116205000Y-112395000D02*
X130175000Y-112395000D01*
X130175000Y-98425000D02*
X116205000Y-98425000D01*
X130175000Y-112395000D02*
X130175000Y-98425000D01*
X116205000Y-107950000D02*
X116205000Y-121920000D01*
X116205000Y-121920000D02*
X130175000Y-121920000D01*
X130175000Y-107950000D02*
X116205000Y-107950000D01*
X130175000Y-121920000D02*
X130175000Y-107950000D01*
X116205000Y-79375000D02*
X116205000Y-93345000D01*
X116205000Y-93345000D02*
X130175000Y-93345000D01*
X130175000Y-79375000D02*
X116205000Y-79375000D01*
X130175000Y-93345000D02*
X130175000Y-79375000D01*
X116205000Y-117475000D02*
X116205000Y-131445000D01*
X116205000Y-131445000D02*
X130175000Y-131445000D01*
X130175000Y-117475000D02*
X116205000Y-117475000D01*
X130175000Y-131445000D02*
X130175000Y-117475000D01*
X135255000Y-41275000D02*
X135255000Y-55245000D01*
X135255000Y-55245000D02*
X149225000Y-55245000D01*
X149225000Y-41275000D02*
X135255000Y-41275000D01*
X149225000Y-55245000D02*
X149225000Y-41275000D01*
X182125252Y-35460000D02*
X181602748Y-35460000D01*
X182125252Y-36930000D02*
X181602748Y-36930000D01*
X154305000Y-98425000D02*
X154305000Y-112395000D01*
X154305000Y-112395000D02*
X168275000Y-112395000D01*
X168275000Y-98425000D02*
X154305000Y-98425000D01*
X168275000Y-112395000D02*
X168275000Y-98425000D01*
X173355000Y-60325000D02*
X173355000Y-74295000D01*
X173355000Y-74295000D02*
X187325000Y-74295000D01*
X187325000Y-60325000D02*
X173355000Y-60325000D01*
X187325000Y-74295000D02*
X187325000Y-60325000D01*
X116205000Y-69850000D02*
X116205000Y-83820000D01*
X116205000Y-83820000D02*
X130175000Y-83820000D01*
X130175000Y-69850000D02*
X116205000Y-69850000D01*
X130175000Y-83820000D02*
X130175000Y-69850000D01*
X173355000Y-117475000D02*
X173355000Y-131445000D01*
X173355000Y-131445000D02*
X187325000Y-131445000D01*
X187325000Y-117475000D02*
X173355000Y-117475000D01*
X187325000Y-131445000D02*
X187325000Y-117475000D01*
X154305000Y-60325000D02*
X154305000Y-74295000D01*
X154305000Y-74295000D02*
X168275000Y-74295000D01*
X168275000Y-60325000D02*
X154305000Y-60325000D01*
X168275000Y-74295000D02*
X168275000Y-60325000D01*
X173355000Y-41275000D02*
X173355000Y-55245000D01*
X173355000Y-55245000D02*
X187325000Y-55245000D01*
X187325000Y-41275000D02*
X173355000Y-41275000D01*
X187325000Y-55245000D02*
X187325000Y-41275000D01*
X135255000Y-79375000D02*
X135255000Y-93345000D01*
X135255000Y-93345000D02*
X149225000Y-93345000D01*
X149225000Y-79375000D02*
X135255000Y-79375000D01*
X149225000Y-93345000D02*
X149225000Y-79375000D01*
X163830000Y-117475000D02*
X163830000Y-131445000D01*
X163830000Y-131445000D02*
X177800000Y-131445000D01*
X177800000Y-117475000D02*
X163830000Y-117475000D01*
X177800000Y-131445000D02*
X177800000Y-117475000D01*
%LPC*%
D11*
X164450000Y-34485000D03*
D12*
X164450000Y-38685000D03*
D11*
X173090000Y-34485000D03*
D12*
X173090000Y-38685000D03*
D13*
X165880000Y-38165000D03*
X171660000Y-38165000D03*
D14*
X146050000Y-121920000D03*
X139700000Y-119380000D03*
D15*
X142240000Y-124460000D03*
D14*
X165100000Y-45720000D03*
X158750000Y-43180000D03*
D15*
X161290000Y-48260000D03*
D14*
X165100000Y-83820000D03*
X158750000Y-81280000D03*
D15*
X161290000Y-86360000D03*
D14*
X127000000Y-64770000D03*
X120650000Y-62230000D03*
D15*
X123190000Y-67310000D03*
D14*
X146050000Y-64770000D03*
X139700000Y-62230000D03*
D15*
X142240000Y-67310000D03*
D14*
X127000000Y-45720000D03*
X120650000Y-43180000D03*
D15*
X123190000Y-48260000D03*
D14*
X165100000Y-121920000D03*
X158750000Y-119380000D03*
D15*
X161290000Y-124460000D03*
D14*
X146050000Y-102870000D03*
X139700000Y-100330000D03*
D15*
X142240000Y-105410000D03*
D14*
X184150000Y-83820000D03*
X177800000Y-81280000D03*
D15*
X180340000Y-86360000D03*
D14*
X184150000Y-102870000D03*
X177800000Y-100330000D03*
D15*
X180340000Y-105410000D03*
D14*
X127000000Y-102870000D03*
X120650000Y-100330000D03*
D15*
X123190000Y-105410000D03*
D14*
X127000000Y-112395000D03*
X120650000Y-109855000D03*
D15*
X123190000Y-114935000D03*
D14*
X127000000Y-83820000D03*
X120650000Y-81280000D03*
D15*
X123190000Y-86360000D03*
D14*
X127000000Y-121920000D03*
X120650000Y-119380000D03*
D15*
X123190000Y-124460000D03*
D14*
X146050000Y-45720000D03*
X139700000Y-43180000D03*
D15*
X142240000Y-48260000D03*
D16*
X180826500Y-36195000D03*
X182901500Y-36195000D03*
D14*
X165100000Y-102870000D03*
X158750000Y-100330000D03*
D15*
X161290000Y-105410000D03*
D14*
X184150000Y-64770000D03*
X177800000Y-62230000D03*
D15*
X180340000Y-67310000D03*
D14*
X127000000Y-74295000D03*
X120650000Y-71755000D03*
D15*
X123190000Y-76835000D03*
D14*
X184150000Y-121920000D03*
X177800000Y-119380000D03*
D15*
X180340000Y-124460000D03*
D14*
X165100000Y-64770000D03*
X158750000Y-62230000D03*
D15*
X161290000Y-67310000D03*
D14*
X184150000Y-45720000D03*
X177800000Y-43180000D03*
D15*
X180340000Y-48260000D03*
D14*
X146050000Y-83820000D03*
X139700000Y-81280000D03*
D15*
X142240000Y-86360000D03*
D14*
X174625000Y-121920000D03*
X168275000Y-119380000D03*
D15*
X170815000Y-124460000D03*
%LPD*%
M02*
