M48
; DRILL file {KiCad 7.0.2} date Tue Aug 22 20:03:14 2023
; FORMAT={-:-/ absolute / metric / decimal}
; #@! TF.CreationDate,2023-08-22T20:03:14-07:00
; #@! TF.GenerationSoftware,Kicad,Pcbnew,7.0.2
; #@! TF.FileFunction,NonPlated,1,2,NPTH
FMAT,2
METRIC
; #@! TA.AperFunction,NonPlated,NPTH,ComponentDrill
T1C0.650
; #@! TA.AperFunction,NonPlated,NPTH,ComponentDrill
T2C4.000
%
G90
G05
T1
X165.88Y-38.165
X171.66Y-38.165
T2
X123.19Y-48.26
X123.19Y-67.31
X123.19Y-76.835
X123.19Y-86.36
X123.19Y-105.41
X123.19Y-114.935
X123.19Y-124.46
X142.24Y-48.26
X142.24Y-67.31
X142.24Y-86.36
X142.24Y-105.41
X142.24Y-124.46
X161.29Y-48.26
X161.29Y-67.31
X161.29Y-86.36
X161.29Y-105.41
X161.29Y-124.46
X170.815Y-124.46
X180.34Y-48.26
X180.34Y-67.31
X180.34Y-86.36
X180.34Y-105.41
X180.34Y-124.46
T0
M30
