G04 #@! TF.GenerationSoftware,KiCad,Pcbnew,7.0.2*
G04 #@! TF.CreationDate,2023-08-22T20:01:55-07:00*
G04 #@! TF.ProjectId,4x5Macro-Numpad-USBC,3478354d-6163-4726-9f2d-4e756d706164,rev?*
G04 #@! TF.SameCoordinates,Original*
G04 #@! TF.FileFunction,Soldermask,Bot*
G04 #@! TF.FilePolarity,Negative*
%FSLAX46Y46*%
G04 Gerber Fmt 4.6, Leading zero omitted, Abs format (unit mm)*
G04 Created by KiCad (PCBNEW 7.0.2) date 2023-08-22 20:01:55*
%MOMM*%
%LPD*%
G01*
G04 APERTURE LIST*
G04 Aperture macros list*
%AMRoundRect*
0 Rectangle with rounded corners*
0 $1 Rounding radius*
0 $2 $3 $4 $5 $6 $7 $8 $9 X,Y pos of 4 corners*
0 Add a 4 corners polygon primitive as box body*
4,1,4,$2,$3,$4,$5,$6,$7,$8,$9,$2,$3,0*
0 Add four circle primitives for the rounded corners*
1,1,$1+$1,$2,$3*
1,1,$1+$1,$4,$5*
1,1,$1+$1,$6,$7*
1,1,$1+$1,$8,$9*
0 Add four rect primitives between the rounded corners*
20,1,$1+$1,$2,$3,$4,$5,0*
20,1,$1+$1,$4,$5,$6,$7,0*
20,1,$1+$1,$6,$7,$8,$9,0*
20,1,$1+$1,$8,$9,$2,$3,0*%
G04 Aperture macros list end*
%ADD10O,1.000000X1.800000*%
%ADD11O,1.000000X2.100000*%
%ADD12C,0.650000*%
%ADD13C,2.200000*%
%ADD14C,4.000000*%
%ADD15RoundRect,0.250000X0.337500X0.475000X-0.337500X0.475000X-0.337500X-0.475000X0.337500X-0.475000X0*%
G04 APERTURE END LIST*
D10*
X164450000Y-34485000D03*
D11*
X164450000Y-38685000D03*
D10*
X173090000Y-34485000D03*
D11*
X173090000Y-38685000D03*
D12*
X165880000Y-38165000D03*
X171660000Y-38165000D03*
D13*
X146050000Y-121920000D03*
X139700000Y-119380000D03*
D14*
X142240000Y-124460000D03*
D13*
X165100000Y-45720000D03*
X158750000Y-43180000D03*
D14*
X161290000Y-48260000D03*
D13*
X165100000Y-83820000D03*
X158750000Y-81280000D03*
D14*
X161290000Y-86360000D03*
D13*
X127000000Y-64770000D03*
X120650000Y-62230000D03*
D14*
X123190000Y-67310000D03*
D13*
X146050000Y-64770000D03*
X139700000Y-62230000D03*
D14*
X142240000Y-67310000D03*
D13*
X127000000Y-45720000D03*
X120650000Y-43180000D03*
D14*
X123190000Y-48260000D03*
D13*
X165100000Y-121920000D03*
X158750000Y-119380000D03*
D14*
X161290000Y-124460000D03*
D13*
X146050000Y-102870000D03*
X139700000Y-100330000D03*
D14*
X142240000Y-105410000D03*
D13*
X184150000Y-83820000D03*
X177800000Y-81280000D03*
D14*
X180340000Y-86360000D03*
D13*
X184150000Y-102870000D03*
X177800000Y-100330000D03*
D14*
X180340000Y-105410000D03*
D13*
X127000000Y-102870000D03*
X120650000Y-100330000D03*
D14*
X123190000Y-105410000D03*
D13*
X127000000Y-112395000D03*
X120650000Y-109855000D03*
D14*
X123190000Y-114935000D03*
D13*
X127000000Y-83820000D03*
X120650000Y-81280000D03*
D14*
X123190000Y-86360000D03*
D13*
X127000000Y-121920000D03*
X120650000Y-119380000D03*
D14*
X123190000Y-124460000D03*
D13*
X146050000Y-45720000D03*
X139700000Y-43180000D03*
D14*
X142240000Y-48260000D03*
D15*
X180826500Y-36195000D03*
X182901500Y-36195000D03*
D13*
X165100000Y-102870000D03*
X158750000Y-100330000D03*
D14*
X161290000Y-105410000D03*
D13*
X184150000Y-64770000D03*
X177800000Y-62230000D03*
D14*
X180340000Y-67310000D03*
D13*
X127000000Y-74295000D03*
X120650000Y-71755000D03*
D14*
X123190000Y-76835000D03*
D13*
X184150000Y-121920000D03*
X177800000Y-119380000D03*
D14*
X180340000Y-124460000D03*
D13*
X165100000Y-64770000D03*
X158750000Y-62230000D03*
D14*
X161290000Y-67310000D03*
D13*
X184150000Y-45720000D03*
X177800000Y-43180000D03*
D14*
X180340000Y-48260000D03*
D13*
X146050000Y-83820000D03*
X139700000Y-81280000D03*
D14*
X142240000Y-86360000D03*
D13*
X174625000Y-121920000D03*
X168275000Y-119380000D03*
D14*
X170815000Y-124460000D03*
M02*
