%TF.GenerationSoftware,KiCad,Pcbnew,7.0.2*%
%TF.CreationDate,2023-08-22T20:03:16-07:00*%
%TF.ProjectId,4x5Macro-Numpad-USBC,3478354d-6163-4726-9f2d-4e756d706164,rev?*%
%TF.SameCoordinates,Original*%
%TF.FileFunction,Drillmap*%
%TF.FilePolarity,Positive*%
%FSLAX45Y45*%
G04 Gerber Fmt 4.5, Leading zero omitted, Abs format (unit mm)*
G04 Created by KiCad (PCBNEW 7.0.2) date 2023-08-22 20:03:16*
%MOMM*%
%LPD*%
G01*
G04 APERTURE LIST*
%ADD10C,0.150000*%
%ADD11C,0.200000*%
%ADD12C,0.065000*%
%ADD13C,0.400000*%
G04 APERTURE END LIST*
D10*
X19304000Y-3492500D02*
G75*
G03*
X18986500Y-3175000I-317500J0D01*
G01*
X11049000Y-13398500D02*
X11049000Y-3492500D01*
X11049000Y-13398500D02*
G75*
G03*
X11366500Y-13716000I317500J0D01*
G01*
X18986500Y-13716000D02*
G75*
G03*
X19304000Y-13398500I0J317500D01*
G01*
X19304000Y-3492500D02*
X19304000Y-13398500D01*
X18986500Y-13716000D02*
X11366500Y-13716000D01*
X11366500Y-3175000D02*
X18986500Y-3175000D01*
X11366500Y-3175000D02*
G75*
G03*
X11049000Y-3492500I0J-317500D01*
G01*
D11*
D12*
X16555500Y-3784000D02*
X16620500Y-3849000D01*
X16620500Y-3784000D02*
X16555500Y-3849000D01*
X17133500Y-3784000D02*
X17198500Y-3849000D01*
X17198500Y-3784000D02*
X17133500Y-3849000D01*
D13*
X12519000Y-4826000D02*
G75*
G03*
X12519000Y-4826000I-200000J0D01*
G01*
X12519000Y-6731000D02*
G75*
G03*
X12519000Y-6731000I-200000J0D01*
G01*
X12519000Y-7683500D02*
G75*
G03*
X12519000Y-7683500I-200000J0D01*
G01*
X12519000Y-8636000D02*
G75*
G03*
X12519000Y-8636000I-200000J0D01*
G01*
X12519000Y-10541000D02*
G75*
G03*
X12519000Y-10541000I-200000J0D01*
G01*
X12519000Y-11493500D02*
G75*
G03*
X12519000Y-11493500I-200000J0D01*
G01*
X12519000Y-12446000D02*
G75*
G03*
X12519000Y-12446000I-200000J0D01*
G01*
X14424000Y-4826000D02*
G75*
G03*
X14424000Y-4826000I-200000J0D01*
G01*
X14424000Y-6731000D02*
G75*
G03*
X14424000Y-6731000I-200000J0D01*
G01*
X14424000Y-8636000D02*
G75*
G03*
X14424000Y-8636000I-200000J0D01*
G01*
X14424000Y-10541000D02*
G75*
G03*
X14424000Y-10541000I-200000J0D01*
G01*
X14424000Y-12446000D02*
G75*
G03*
X14424000Y-12446000I-200000J0D01*
G01*
X16329000Y-4826000D02*
G75*
G03*
X16329000Y-4826000I-200000J0D01*
G01*
X16329000Y-6731000D02*
G75*
G03*
X16329000Y-6731000I-200000J0D01*
G01*
X16329000Y-8636000D02*
G75*
G03*
X16329000Y-8636000I-200000J0D01*
G01*
X16329000Y-10541000D02*
G75*
G03*
X16329000Y-10541000I-200000J0D01*
G01*
X16329000Y-12446000D02*
G75*
G03*
X16329000Y-12446000I-200000J0D01*
G01*
X17281500Y-12446000D02*
G75*
G03*
X17281500Y-12446000I-200000J0D01*
G01*
X18234000Y-4826000D02*
G75*
G03*
X18234000Y-4826000I-200000J0D01*
G01*
X18234000Y-6731000D02*
G75*
G03*
X18234000Y-6731000I-200000J0D01*
G01*
X18234000Y-8636000D02*
G75*
G03*
X18234000Y-8636000I-200000J0D01*
G01*
X18234000Y-10541000D02*
G75*
G03*
X18234000Y-10541000I-200000J0D01*
G01*
X18234000Y-12446000D02*
G75*
G03*
X18234000Y-12446000I-200000J0D01*
G01*
D11*
X11289119Y-14036024D02*
X11289119Y-13836024D01*
X11289119Y-13836024D02*
X11336738Y-13836024D01*
X11336738Y-13836024D02*
X11365309Y-13845548D01*
X11365309Y-13845548D02*
X11384357Y-13864595D01*
X11384357Y-13864595D02*
X11393881Y-13883643D01*
X11393881Y-13883643D02*
X11403405Y-13921738D01*
X11403405Y-13921738D02*
X11403405Y-13950309D01*
X11403405Y-13950309D02*
X11393881Y-13988405D01*
X11393881Y-13988405D02*
X11384357Y-14007452D01*
X11384357Y-14007452D02*
X11365309Y-14026500D01*
X11365309Y-14026500D02*
X11336738Y-14036024D01*
X11336738Y-14036024D02*
X11289119Y-14036024D01*
X11489119Y-14036024D02*
X11489119Y-13902690D01*
X11489119Y-13940786D02*
X11498643Y-13921738D01*
X11498643Y-13921738D02*
X11508167Y-13912214D01*
X11508167Y-13912214D02*
X11527214Y-13902690D01*
X11527214Y-13902690D02*
X11546262Y-13902690D01*
X11612928Y-14036024D02*
X11612928Y-13902690D01*
X11612928Y-13836024D02*
X11603405Y-13845548D01*
X11603405Y-13845548D02*
X11612928Y-13855071D01*
X11612928Y-13855071D02*
X11622452Y-13845548D01*
X11622452Y-13845548D02*
X11612928Y-13836024D01*
X11612928Y-13836024D02*
X11612928Y-13855071D01*
X11736738Y-14036024D02*
X11717690Y-14026500D01*
X11717690Y-14026500D02*
X11708167Y-14007452D01*
X11708167Y-14007452D02*
X11708167Y-13836024D01*
X11841500Y-14036024D02*
X11822452Y-14026500D01*
X11822452Y-14026500D02*
X11812928Y-14007452D01*
X11812928Y-14007452D02*
X11812928Y-13836024D01*
X12070071Y-14036024D02*
X12070071Y-13836024D01*
X12070071Y-13836024D02*
X12136738Y-13978881D01*
X12136738Y-13978881D02*
X12203405Y-13836024D01*
X12203405Y-13836024D02*
X12203405Y-14036024D01*
X12384357Y-14036024D02*
X12384357Y-13931262D01*
X12384357Y-13931262D02*
X12374833Y-13912214D01*
X12374833Y-13912214D02*
X12355786Y-13902690D01*
X12355786Y-13902690D02*
X12317690Y-13902690D01*
X12317690Y-13902690D02*
X12298643Y-13912214D01*
X12384357Y-14026500D02*
X12365309Y-14036024D01*
X12365309Y-14036024D02*
X12317690Y-14036024D01*
X12317690Y-14036024D02*
X12298643Y-14026500D01*
X12298643Y-14026500D02*
X12289119Y-14007452D01*
X12289119Y-14007452D02*
X12289119Y-13988405D01*
X12289119Y-13988405D02*
X12298643Y-13969357D01*
X12298643Y-13969357D02*
X12317690Y-13959833D01*
X12317690Y-13959833D02*
X12365309Y-13959833D01*
X12365309Y-13959833D02*
X12384357Y-13950309D01*
X12479595Y-13902690D02*
X12479595Y-14102690D01*
X12479595Y-13912214D02*
X12498643Y-13902690D01*
X12498643Y-13902690D02*
X12536738Y-13902690D01*
X12536738Y-13902690D02*
X12555786Y-13912214D01*
X12555786Y-13912214D02*
X12565309Y-13921738D01*
X12565309Y-13921738D02*
X12574833Y-13940786D01*
X12574833Y-13940786D02*
X12574833Y-13997928D01*
X12574833Y-13997928D02*
X12565309Y-14016976D01*
X12565309Y-14016976D02*
X12555786Y-14026500D01*
X12555786Y-14026500D02*
X12536738Y-14036024D01*
X12536738Y-14036024D02*
X12498643Y-14036024D01*
X12498643Y-14036024D02*
X12479595Y-14026500D01*
X12660548Y-14016976D02*
X12670071Y-14026500D01*
X12670071Y-14026500D02*
X12660548Y-14036024D01*
X12660548Y-14036024D02*
X12651024Y-14026500D01*
X12651024Y-14026500D02*
X12660548Y-14016976D01*
X12660548Y-14016976D02*
X12660548Y-14036024D01*
X12660548Y-13912214D02*
X12670071Y-13921738D01*
X12670071Y-13921738D02*
X12660548Y-13931262D01*
X12660548Y-13931262D02*
X12651024Y-13921738D01*
X12651024Y-13921738D02*
X12660548Y-13912214D01*
X12660548Y-13912214D02*
X12660548Y-13931262D01*
D12*
X10976500Y-14331000D02*
X11041500Y-14396000D01*
X11041500Y-14331000D02*
X10976500Y-14396000D01*
D11*
X11327214Y-14256024D02*
X11346262Y-14256024D01*
X11346262Y-14256024D02*
X11365309Y-14265548D01*
X11365309Y-14265548D02*
X11374833Y-14275071D01*
X11374833Y-14275071D02*
X11384357Y-14294119D01*
X11384357Y-14294119D02*
X11393881Y-14332214D01*
X11393881Y-14332214D02*
X11393881Y-14379833D01*
X11393881Y-14379833D02*
X11384357Y-14417928D01*
X11384357Y-14417928D02*
X11374833Y-14436976D01*
X11374833Y-14436976D02*
X11365309Y-14446500D01*
X11365309Y-14446500D02*
X11346262Y-14456024D01*
X11346262Y-14456024D02*
X11327214Y-14456024D01*
X11327214Y-14456024D02*
X11308167Y-14446500D01*
X11308167Y-14446500D02*
X11298643Y-14436976D01*
X11298643Y-14436976D02*
X11289119Y-14417928D01*
X11289119Y-14417928D02*
X11279595Y-14379833D01*
X11279595Y-14379833D02*
X11279595Y-14332214D01*
X11279595Y-14332214D02*
X11289119Y-14294119D01*
X11289119Y-14294119D02*
X11298643Y-14275071D01*
X11298643Y-14275071D02*
X11308167Y-14265548D01*
X11308167Y-14265548D02*
X11327214Y-14256024D01*
X11479595Y-14436976D02*
X11489119Y-14446500D01*
X11489119Y-14446500D02*
X11479595Y-14456024D01*
X11479595Y-14456024D02*
X11470071Y-14446500D01*
X11470071Y-14446500D02*
X11479595Y-14436976D01*
X11479595Y-14436976D02*
X11479595Y-14456024D01*
X11660548Y-14256024D02*
X11622452Y-14256024D01*
X11622452Y-14256024D02*
X11603405Y-14265548D01*
X11603405Y-14265548D02*
X11593881Y-14275071D01*
X11593881Y-14275071D02*
X11574833Y-14303643D01*
X11574833Y-14303643D02*
X11565309Y-14341738D01*
X11565309Y-14341738D02*
X11565309Y-14417928D01*
X11565309Y-14417928D02*
X11574833Y-14436976D01*
X11574833Y-14436976D02*
X11584357Y-14446500D01*
X11584357Y-14446500D02*
X11603405Y-14456024D01*
X11603405Y-14456024D02*
X11641500Y-14456024D01*
X11641500Y-14456024D02*
X11660548Y-14446500D01*
X11660548Y-14446500D02*
X11670071Y-14436976D01*
X11670071Y-14436976D02*
X11679595Y-14417928D01*
X11679595Y-14417928D02*
X11679595Y-14370309D01*
X11679595Y-14370309D02*
X11670071Y-14351262D01*
X11670071Y-14351262D02*
X11660548Y-14341738D01*
X11660548Y-14341738D02*
X11641500Y-14332214D01*
X11641500Y-14332214D02*
X11603405Y-14332214D01*
X11603405Y-14332214D02*
X11584357Y-14341738D01*
X11584357Y-14341738D02*
X11574833Y-14351262D01*
X11574833Y-14351262D02*
X11565309Y-14370309D01*
X11860548Y-14256024D02*
X11765309Y-14256024D01*
X11765309Y-14256024D02*
X11755786Y-14351262D01*
X11755786Y-14351262D02*
X11765309Y-14341738D01*
X11765309Y-14341738D02*
X11784357Y-14332214D01*
X11784357Y-14332214D02*
X11831976Y-14332214D01*
X11831976Y-14332214D02*
X11851024Y-14341738D01*
X11851024Y-14341738D02*
X11860548Y-14351262D01*
X11860548Y-14351262D02*
X11870071Y-14370309D01*
X11870071Y-14370309D02*
X11870071Y-14417928D01*
X11870071Y-14417928D02*
X11860548Y-14436976D01*
X11860548Y-14436976D02*
X11851024Y-14446500D01*
X11851024Y-14446500D02*
X11831976Y-14456024D01*
X11831976Y-14456024D02*
X11784357Y-14456024D01*
X11784357Y-14456024D02*
X11765309Y-14446500D01*
X11765309Y-14446500D02*
X11755786Y-14436976D01*
X11993881Y-14256024D02*
X12012929Y-14256024D01*
X12012929Y-14256024D02*
X12031976Y-14265548D01*
X12031976Y-14265548D02*
X12041500Y-14275071D01*
X12041500Y-14275071D02*
X12051024Y-14294119D01*
X12051024Y-14294119D02*
X12060548Y-14332214D01*
X12060548Y-14332214D02*
X12060548Y-14379833D01*
X12060548Y-14379833D02*
X12051024Y-14417928D01*
X12051024Y-14417928D02*
X12041500Y-14436976D01*
X12041500Y-14436976D02*
X12031976Y-14446500D01*
X12031976Y-14446500D02*
X12012929Y-14456024D01*
X12012929Y-14456024D02*
X11993881Y-14456024D01*
X11993881Y-14456024D02*
X11974833Y-14446500D01*
X11974833Y-14446500D02*
X11965309Y-14436976D01*
X11965309Y-14436976D02*
X11955786Y-14417928D01*
X11955786Y-14417928D02*
X11946262Y-14379833D01*
X11946262Y-14379833D02*
X11946262Y-14332214D01*
X11946262Y-14332214D02*
X11955786Y-14294119D01*
X11955786Y-14294119D02*
X11965309Y-14275071D01*
X11965309Y-14275071D02*
X11974833Y-14265548D01*
X11974833Y-14265548D02*
X11993881Y-14256024D01*
X12146262Y-14456024D02*
X12146262Y-14322690D01*
X12146262Y-14341738D02*
X12155786Y-14332214D01*
X12155786Y-14332214D02*
X12174833Y-14322690D01*
X12174833Y-14322690D02*
X12203405Y-14322690D01*
X12203405Y-14322690D02*
X12222452Y-14332214D01*
X12222452Y-14332214D02*
X12231976Y-14351262D01*
X12231976Y-14351262D02*
X12231976Y-14456024D01*
X12231976Y-14351262D02*
X12241500Y-14332214D01*
X12241500Y-14332214D02*
X12260548Y-14322690D01*
X12260548Y-14322690D02*
X12289119Y-14322690D01*
X12289119Y-14322690D02*
X12308167Y-14332214D01*
X12308167Y-14332214D02*
X12317690Y-14351262D01*
X12317690Y-14351262D02*
X12317690Y-14456024D01*
X12412929Y-14456024D02*
X12412929Y-14322690D01*
X12412929Y-14341738D02*
X12422452Y-14332214D01*
X12422452Y-14332214D02*
X12441500Y-14322690D01*
X12441500Y-14322690D02*
X12470071Y-14322690D01*
X12470071Y-14322690D02*
X12489119Y-14332214D01*
X12489119Y-14332214D02*
X12498643Y-14351262D01*
X12498643Y-14351262D02*
X12498643Y-14456024D01*
X12498643Y-14351262D02*
X12508167Y-14332214D01*
X12508167Y-14332214D02*
X12527214Y-14322690D01*
X12527214Y-14322690D02*
X12555786Y-14322690D01*
X12555786Y-14322690D02*
X12574833Y-14332214D01*
X12574833Y-14332214D02*
X12584357Y-14351262D01*
X12584357Y-14351262D02*
X12584357Y-14456024D01*
X12974833Y-14246500D02*
X12803405Y-14503643D01*
X13231976Y-14256024D02*
X13251024Y-14256024D01*
X13251024Y-14256024D02*
X13270072Y-14265548D01*
X13270072Y-14265548D02*
X13279595Y-14275071D01*
X13279595Y-14275071D02*
X13289119Y-14294119D01*
X13289119Y-14294119D02*
X13298643Y-14332214D01*
X13298643Y-14332214D02*
X13298643Y-14379833D01*
X13298643Y-14379833D02*
X13289119Y-14417928D01*
X13289119Y-14417928D02*
X13279595Y-14436976D01*
X13279595Y-14436976D02*
X13270072Y-14446500D01*
X13270072Y-14446500D02*
X13251024Y-14456024D01*
X13251024Y-14456024D02*
X13231976Y-14456024D01*
X13231976Y-14456024D02*
X13212929Y-14446500D01*
X13212929Y-14446500D02*
X13203405Y-14436976D01*
X13203405Y-14436976D02*
X13193881Y-14417928D01*
X13193881Y-14417928D02*
X13184357Y-14379833D01*
X13184357Y-14379833D02*
X13184357Y-14332214D01*
X13184357Y-14332214D02*
X13193881Y-14294119D01*
X13193881Y-14294119D02*
X13203405Y-14275071D01*
X13203405Y-14275071D02*
X13212929Y-14265548D01*
X13212929Y-14265548D02*
X13231976Y-14256024D01*
X13384357Y-14436976D02*
X13393881Y-14446500D01*
X13393881Y-14446500D02*
X13384357Y-14456024D01*
X13384357Y-14456024D02*
X13374833Y-14446500D01*
X13374833Y-14446500D02*
X13384357Y-14436976D01*
X13384357Y-14436976D02*
X13384357Y-14456024D01*
X13517691Y-14256024D02*
X13536738Y-14256024D01*
X13536738Y-14256024D02*
X13555786Y-14265548D01*
X13555786Y-14265548D02*
X13565310Y-14275071D01*
X13565310Y-14275071D02*
X13574833Y-14294119D01*
X13574833Y-14294119D02*
X13584357Y-14332214D01*
X13584357Y-14332214D02*
X13584357Y-14379833D01*
X13584357Y-14379833D02*
X13574833Y-14417928D01*
X13574833Y-14417928D02*
X13565310Y-14436976D01*
X13565310Y-14436976D02*
X13555786Y-14446500D01*
X13555786Y-14446500D02*
X13536738Y-14456024D01*
X13536738Y-14456024D02*
X13517691Y-14456024D01*
X13517691Y-14456024D02*
X13498643Y-14446500D01*
X13498643Y-14446500D02*
X13489119Y-14436976D01*
X13489119Y-14436976D02*
X13479595Y-14417928D01*
X13479595Y-14417928D02*
X13470072Y-14379833D01*
X13470072Y-14379833D02*
X13470072Y-14332214D01*
X13470072Y-14332214D02*
X13479595Y-14294119D01*
X13479595Y-14294119D02*
X13489119Y-14275071D01*
X13489119Y-14275071D02*
X13498643Y-14265548D01*
X13498643Y-14265548D02*
X13517691Y-14256024D01*
X13660548Y-14275071D02*
X13670072Y-14265548D01*
X13670072Y-14265548D02*
X13689119Y-14256024D01*
X13689119Y-14256024D02*
X13736738Y-14256024D01*
X13736738Y-14256024D02*
X13755786Y-14265548D01*
X13755786Y-14265548D02*
X13765310Y-14275071D01*
X13765310Y-14275071D02*
X13774833Y-14294119D01*
X13774833Y-14294119D02*
X13774833Y-14313167D01*
X13774833Y-14313167D02*
X13765310Y-14341738D01*
X13765310Y-14341738D02*
X13651024Y-14456024D01*
X13651024Y-14456024D02*
X13774833Y-14456024D01*
X13955786Y-14256024D02*
X13860548Y-14256024D01*
X13860548Y-14256024D02*
X13851024Y-14351262D01*
X13851024Y-14351262D02*
X13860548Y-14341738D01*
X13860548Y-14341738D02*
X13879595Y-14332214D01*
X13879595Y-14332214D02*
X13927214Y-14332214D01*
X13927214Y-14332214D02*
X13946262Y-14341738D01*
X13946262Y-14341738D02*
X13955786Y-14351262D01*
X13955786Y-14351262D02*
X13965310Y-14370309D01*
X13965310Y-14370309D02*
X13965310Y-14417928D01*
X13965310Y-14417928D02*
X13955786Y-14436976D01*
X13955786Y-14436976D02*
X13946262Y-14446500D01*
X13946262Y-14446500D02*
X13927214Y-14456024D01*
X13927214Y-14456024D02*
X13879595Y-14456024D01*
X13879595Y-14456024D02*
X13860548Y-14446500D01*
X13860548Y-14446500D02*
X13851024Y-14436976D01*
X14136738Y-14256024D02*
X14098643Y-14256024D01*
X14098643Y-14256024D02*
X14079595Y-14265548D01*
X14079595Y-14265548D02*
X14070072Y-14275071D01*
X14070072Y-14275071D02*
X14051024Y-14303643D01*
X14051024Y-14303643D02*
X14041500Y-14341738D01*
X14041500Y-14341738D02*
X14041500Y-14417928D01*
X14041500Y-14417928D02*
X14051024Y-14436976D01*
X14051024Y-14436976D02*
X14060548Y-14446500D01*
X14060548Y-14446500D02*
X14079595Y-14456024D01*
X14079595Y-14456024D02*
X14117691Y-14456024D01*
X14117691Y-14456024D02*
X14136738Y-14446500D01*
X14136738Y-14446500D02*
X14146262Y-14436976D01*
X14146262Y-14436976D02*
X14155786Y-14417928D01*
X14155786Y-14417928D02*
X14155786Y-14370309D01*
X14155786Y-14370309D02*
X14146262Y-14351262D01*
X14146262Y-14351262D02*
X14136738Y-14341738D01*
X14136738Y-14341738D02*
X14117691Y-14332214D01*
X14117691Y-14332214D02*
X14079595Y-14332214D01*
X14079595Y-14332214D02*
X14060548Y-14341738D01*
X14060548Y-14341738D02*
X14051024Y-14351262D01*
X14051024Y-14351262D02*
X14041500Y-14370309D01*
X14231976Y-14256024D02*
X14231976Y-14294119D01*
X14308167Y-14256024D02*
X14308167Y-14294119D01*
X14603405Y-14532214D02*
X14593881Y-14522690D01*
X14593881Y-14522690D02*
X14574834Y-14494119D01*
X14574834Y-14494119D02*
X14565310Y-14475071D01*
X14565310Y-14475071D02*
X14555786Y-14446500D01*
X14555786Y-14446500D02*
X14546262Y-14398881D01*
X14546262Y-14398881D02*
X14546262Y-14360786D01*
X14546262Y-14360786D02*
X14555786Y-14313167D01*
X14555786Y-14313167D02*
X14565310Y-14284595D01*
X14565310Y-14284595D02*
X14574834Y-14265548D01*
X14574834Y-14265548D02*
X14593881Y-14236976D01*
X14593881Y-14236976D02*
X14603405Y-14227452D01*
X14670072Y-14275071D02*
X14679595Y-14265548D01*
X14679595Y-14265548D02*
X14698643Y-14256024D01*
X14698643Y-14256024D02*
X14746262Y-14256024D01*
X14746262Y-14256024D02*
X14765310Y-14265548D01*
X14765310Y-14265548D02*
X14774834Y-14275071D01*
X14774834Y-14275071D02*
X14784357Y-14294119D01*
X14784357Y-14294119D02*
X14784357Y-14313167D01*
X14784357Y-14313167D02*
X14774834Y-14341738D01*
X14774834Y-14341738D02*
X14660548Y-14456024D01*
X14660548Y-14456024D02*
X14784357Y-14456024D01*
X15022453Y-14456024D02*
X15022453Y-14256024D01*
X15108167Y-14456024D02*
X15108167Y-14351262D01*
X15108167Y-14351262D02*
X15098643Y-14332214D01*
X15098643Y-14332214D02*
X15079596Y-14322690D01*
X15079596Y-14322690D02*
X15051024Y-14322690D01*
X15051024Y-14322690D02*
X15031976Y-14332214D01*
X15031976Y-14332214D02*
X15022453Y-14341738D01*
X15231976Y-14456024D02*
X15212929Y-14446500D01*
X15212929Y-14446500D02*
X15203405Y-14436976D01*
X15203405Y-14436976D02*
X15193881Y-14417928D01*
X15193881Y-14417928D02*
X15193881Y-14360786D01*
X15193881Y-14360786D02*
X15203405Y-14341738D01*
X15203405Y-14341738D02*
X15212929Y-14332214D01*
X15212929Y-14332214D02*
X15231976Y-14322690D01*
X15231976Y-14322690D02*
X15260548Y-14322690D01*
X15260548Y-14322690D02*
X15279596Y-14332214D01*
X15279596Y-14332214D02*
X15289119Y-14341738D01*
X15289119Y-14341738D02*
X15298643Y-14360786D01*
X15298643Y-14360786D02*
X15298643Y-14417928D01*
X15298643Y-14417928D02*
X15289119Y-14436976D01*
X15289119Y-14436976D02*
X15279596Y-14446500D01*
X15279596Y-14446500D02*
X15260548Y-14456024D01*
X15260548Y-14456024D02*
X15231976Y-14456024D01*
X15412929Y-14456024D02*
X15393881Y-14446500D01*
X15393881Y-14446500D02*
X15384357Y-14427452D01*
X15384357Y-14427452D02*
X15384357Y-14256024D01*
X15565310Y-14446500D02*
X15546262Y-14456024D01*
X15546262Y-14456024D02*
X15508167Y-14456024D01*
X15508167Y-14456024D02*
X15489119Y-14446500D01*
X15489119Y-14446500D02*
X15479596Y-14427452D01*
X15479596Y-14427452D02*
X15479596Y-14351262D01*
X15479596Y-14351262D02*
X15489119Y-14332214D01*
X15489119Y-14332214D02*
X15508167Y-14322690D01*
X15508167Y-14322690D02*
X15546262Y-14322690D01*
X15546262Y-14322690D02*
X15565310Y-14332214D01*
X15565310Y-14332214D02*
X15574834Y-14351262D01*
X15574834Y-14351262D02*
X15574834Y-14370309D01*
X15574834Y-14370309D02*
X15479596Y-14389357D01*
X15651024Y-14446500D02*
X15670072Y-14456024D01*
X15670072Y-14456024D02*
X15708167Y-14456024D01*
X15708167Y-14456024D02*
X15727215Y-14446500D01*
X15727215Y-14446500D02*
X15736738Y-14427452D01*
X15736738Y-14427452D02*
X15736738Y-14417928D01*
X15736738Y-14417928D02*
X15727215Y-14398881D01*
X15727215Y-14398881D02*
X15708167Y-14389357D01*
X15708167Y-14389357D02*
X15679596Y-14389357D01*
X15679596Y-14389357D02*
X15660548Y-14379833D01*
X15660548Y-14379833D02*
X15651024Y-14360786D01*
X15651024Y-14360786D02*
X15651024Y-14351262D01*
X15651024Y-14351262D02*
X15660548Y-14332214D01*
X15660548Y-14332214D02*
X15679596Y-14322690D01*
X15679596Y-14322690D02*
X15708167Y-14322690D01*
X15708167Y-14322690D02*
X15727215Y-14332214D01*
X15803405Y-14532214D02*
X15812929Y-14522690D01*
X15812929Y-14522690D02*
X15831977Y-14494119D01*
X15831977Y-14494119D02*
X15841500Y-14475071D01*
X15841500Y-14475071D02*
X15851024Y-14446500D01*
X15851024Y-14446500D02*
X15860548Y-14398881D01*
X15860548Y-14398881D02*
X15860548Y-14360786D01*
X15860548Y-14360786D02*
X15851024Y-14313167D01*
X15851024Y-14313167D02*
X15841500Y-14284595D01*
X15841500Y-14284595D02*
X15831977Y-14265548D01*
X15831977Y-14265548D02*
X15812929Y-14236976D01*
X15812929Y-14236976D02*
X15803405Y-14227452D01*
X16165310Y-14532214D02*
X16155786Y-14522690D01*
X16155786Y-14522690D02*
X16136738Y-14494119D01*
X16136738Y-14494119D02*
X16127215Y-14475071D01*
X16127215Y-14475071D02*
X16117691Y-14446500D01*
X16117691Y-14446500D02*
X16108167Y-14398881D01*
X16108167Y-14398881D02*
X16108167Y-14360786D01*
X16108167Y-14360786D02*
X16117691Y-14313167D01*
X16117691Y-14313167D02*
X16127215Y-14284595D01*
X16127215Y-14284595D02*
X16136738Y-14265548D01*
X16136738Y-14265548D02*
X16155786Y-14236976D01*
X16155786Y-14236976D02*
X16165310Y-14227452D01*
X16241500Y-14322690D02*
X16241500Y-14456024D01*
X16241500Y-14341738D02*
X16251024Y-14332214D01*
X16251024Y-14332214D02*
X16270072Y-14322690D01*
X16270072Y-14322690D02*
X16298643Y-14322690D01*
X16298643Y-14322690D02*
X16317691Y-14332214D01*
X16317691Y-14332214D02*
X16327215Y-14351262D01*
X16327215Y-14351262D02*
X16327215Y-14456024D01*
X16451024Y-14456024D02*
X16431977Y-14446500D01*
X16431977Y-14446500D02*
X16422453Y-14436976D01*
X16422453Y-14436976D02*
X16412929Y-14417928D01*
X16412929Y-14417928D02*
X16412929Y-14360786D01*
X16412929Y-14360786D02*
X16422453Y-14341738D01*
X16422453Y-14341738D02*
X16431977Y-14332214D01*
X16431977Y-14332214D02*
X16451024Y-14322690D01*
X16451024Y-14322690D02*
X16479596Y-14322690D01*
X16479596Y-14322690D02*
X16498643Y-14332214D01*
X16498643Y-14332214D02*
X16508167Y-14341738D01*
X16508167Y-14341738D02*
X16517691Y-14360786D01*
X16517691Y-14360786D02*
X16517691Y-14417928D01*
X16517691Y-14417928D02*
X16508167Y-14436976D01*
X16508167Y-14436976D02*
X16498643Y-14446500D01*
X16498643Y-14446500D02*
X16479596Y-14456024D01*
X16479596Y-14456024D02*
X16451024Y-14456024D01*
X16574834Y-14322690D02*
X16651024Y-14322690D01*
X16603405Y-14256024D02*
X16603405Y-14427452D01*
X16603405Y-14427452D02*
X16612929Y-14446500D01*
X16612929Y-14446500D02*
X16631977Y-14456024D01*
X16631977Y-14456024D02*
X16651024Y-14456024D01*
X16870072Y-14322690D02*
X16870072Y-14522690D01*
X16870072Y-14332214D02*
X16889120Y-14322690D01*
X16889120Y-14322690D02*
X16927215Y-14322690D01*
X16927215Y-14322690D02*
X16946262Y-14332214D01*
X16946262Y-14332214D02*
X16955786Y-14341738D01*
X16955786Y-14341738D02*
X16965310Y-14360786D01*
X16965310Y-14360786D02*
X16965310Y-14417928D01*
X16965310Y-14417928D02*
X16955786Y-14436976D01*
X16955786Y-14436976D02*
X16946262Y-14446500D01*
X16946262Y-14446500D02*
X16927215Y-14456024D01*
X16927215Y-14456024D02*
X16889120Y-14456024D01*
X16889120Y-14456024D02*
X16870072Y-14446500D01*
X17079596Y-14456024D02*
X17060548Y-14446500D01*
X17060548Y-14446500D02*
X17051024Y-14427452D01*
X17051024Y-14427452D02*
X17051024Y-14256024D01*
X17241501Y-14456024D02*
X17241501Y-14351262D01*
X17241501Y-14351262D02*
X17231977Y-14332214D01*
X17231977Y-14332214D02*
X17212929Y-14322690D01*
X17212929Y-14322690D02*
X17174834Y-14322690D01*
X17174834Y-14322690D02*
X17155786Y-14332214D01*
X17241501Y-14446500D02*
X17222453Y-14456024D01*
X17222453Y-14456024D02*
X17174834Y-14456024D01*
X17174834Y-14456024D02*
X17155786Y-14446500D01*
X17155786Y-14446500D02*
X17146262Y-14427452D01*
X17146262Y-14427452D02*
X17146262Y-14408405D01*
X17146262Y-14408405D02*
X17155786Y-14389357D01*
X17155786Y-14389357D02*
X17174834Y-14379833D01*
X17174834Y-14379833D02*
X17222453Y-14379833D01*
X17222453Y-14379833D02*
X17241501Y-14370309D01*
X17308167Y-14322690D02*
X17384358Y-14322690D01*
X17336739Y-14256024D02*
X17336739Y-14427452D01*
X17336739Y-14427452D02*
X17346262Y-14446500D01*
X17346262Y-14446500D02*
X17365310Y-14456024D01*
X17365310Y-14456024D02*
X17384358Y-14456024D01*
X17527215Y-14446500D02*
X17508167Y-14456024D01*
X17508167Y-14456024D02*
X17470072Y-14456024D01*
X17470072Y-14456024D02*
X17451024Y-14446500D01*
X17451024Y-14446500D02*
X17441501Y-14427452D01*
X17441501Y-14427452D02*
X17441501Y-14351262D01*
X17441501Y-14351262D02*
X17451024Y-14332214D01*
X17451024Y-14332214D02*
X17470072Y-14322690D01*
X17470072Y-14322690D02*
X17508167Y-14322690D01*
X17508167Y-14322690D02*
X17527215Y-14332214D01*
X17527215Y-14332214D02*
X17536739Y-14351262D01*
X17536739Y-14351262D02*
X17536739Y-14370309D01*
X17536739Y-14370309D02*
X17441501Y-14389357D01*
X17708167Y-14456024D02*
X17708167Y-14256024D01*
X17708167Y-14446500D02*
X17689120Y-14456024D01*
X17689120Y-14456024D02*
X17651024Y-14456024D01*
X17651024Y-14456024D02*
X17631977Y-14446500D01*
X17631977Y-14446500D02*
X17622453Y-14436976D01*
X17622453Y-14436976D02*
X17612929Y-14417928D01*
X17612929Y-14417928D02*
X17612929Y-14360786D01*
X17612929Y-14360786D02*
X17622453Y-14341738D01*
X17622453Y-14341738D02*
X17631977Y-14332214D01*
X17631977Y-14332214D02*
X17651024Y-14322690D01*
X17651024Y-14322690D02*
X17689120Y-14322690D01*
X17689120Y-14322690D02*
X17708167Y-14332214D01*
X17784358Y-14532214D02*
X17793882Y-14522690D01*
X17793882Y-14522690D02*
X17812929Y-14494119D01*
X17812929Y-14494119D02*
X17822453Y-14475071D01*
X17822453Y-14475071D02*
X17831977Y-14446500D01*
X17831977Y-14446500D02*
X17841501Y-14398881D01*
X17841501Y-14398881D02*
X17841501Y-14360786D01*
X17841501Y-14360786D02*
X17831977Y-14313167D01*
X17831977Y-14313167D02*
X17822453Y-14284595D01*
X17822453Y-14284595D02*
X17812929Y-14265548D01*
X17812929Y-14265548D02*
X17793882Y-14236976D01*
X17793882Y-14236976D02*
X17784358Y-14227452D01*
X11041500Y-14627500D02*
G75*
G03*
X11041500Y-14627500I-100000J0D01*
G01*
X11374833Y-14586690D02*
X11374833Y-14720024D01*
X11327214Y-14510500D02*
X11279595Y-14653357D01*
X11279595Y-14653357D02*
X11403405Y-14653357D01*
X11479595Y-14700976D02*
X11489119Y-14710500D01*
X11489119Y-14710500D02*
X11479595Y-14720024D01*
X11479595Y-14720024D02*
X11470071Y-14710500D01*
X11470071Y-14710500D02*
X11479595Y-14700976D01*
X11479595Y-14700976D02*
X11479595Y-14720024D01*
X11612928Y-14520024D02*
X11631976Y-14520024D01*
X11631976Y-14520024D02*
X11651024Y-14529548D01*
X11651024Y-14529548D02*
X11660548Y-14539071D01*
X11660548Y-14539071D02*
X11670071Y-14558119D01*
X11670071Y-14558119D02*
X11679595Y-14596214D01*
X11679595Y-14596214D02*
X11679595Y-14643833D01*
X11679595Y-14643833D02*
X11670071Y-14681928D01*
X11670071Y-14681928D02*
X11660548Y-14700976D01*
X11660548Y-14700976D02*
X11651024Y-14710500D01*
X11651024Y-14710500D02*
X11631976Y-14720024D01*
X11631976Y-14720024D02*
X11612928Y-14720024D01*
X11612928Y-14720024D02*
X11593881Y-14710500D01*
X11593881Y-14710500D02*
X11584357Y-14700976D01*
X11584357Y-14700976D02*
X11574833Y-14681928D01*
X11574833Y-14681928D02*
X11565309Y-14643833D01*
X11565309Y-14643833D02*
X11565309Y-14596214D01*
X11565309Y-14596214D02*
X11574833Y-14558119D01*
X11574833Y-14558119D02*
X11584357Y-14539071D01*
X11584357Y-14539071D02*
X11593881Y-14529548D01*
X11593881Y-14529548D02*
X11612928Y-14520024D01*
X11803405Y-14520024D02*
X11822452Y-14520024D01*
X11822452Y-14520024D02*
X11841500Y-14529548D01*
X11841500Y-14529548D02*
X11851024Y-14539071D01*
X11851024Y-14539071D02*
X11860548Y-14558119D01*
X11860548Y-14558119D02*
X11870071Y-14596214D01*
X11870071Y-14596214D02*
X11870071Y-14643833D01*
X11870071Y-14643833D02*
X11860548Y-14681928D01*
X11860548Y-14681928D02*
X11851024Y-14700976D01*
X11851024Y-14700976D02*
X11841500Y-14710500D01*
X11841500Y-14710500D02*
X11822452Y-14720024D01*
X11822452Y-14720024D02*
X11803405Y-14720024D01*
X11803405Y-14720024D02*
X11784357Y-14710500D01*
X11784357Y-14710500D02*
X11774833Y-14700976D01*
X11774833Y-14700976D02*
X11765309Y-14681928D01*
X11765309Y-14681928D02*
X11755786Y-14643833D01*
X11755786Y-14643833D02*
X11755786Y-14596214D01*
X11755786Y-14596214D02*
X11765309Y-14558119D01*
X11765309Y-14558119D02*
X11774833Y-14539071D01*
X11774833Y-14539071D02*
X11784357Y-14529548D01*
X11784357Y-14529548D02*
X11803405Y-14520024D01*
X11993881Y-14520024D02*
X12012929Y-14520024D01*
X12012929Y-14520024D02*
X12031976Y-14529548D01*
X12031976Y-14529548D02*
X12041500Y-14539071D01*
X12041500Y-14539071D02*
X12051024Y-14558119D01*
X12051024Y-14558119D02*
X12060548Y-14596214D01*
X12060548Y-14596214D02*
X12060548Y-14643833D01*
X12060548Y-14643833D02*
X12051024Y-14681928D01*
X12051024Y-14681928D02*
X12041500Y-14700976D01*
X12041500Y-14700976D02*
X12031976Y-14710500D01*
X12031976Y-14710500D02*
X12012929Y-14720024D01*
X12012929Y-14720024D02*
X11993881Y-14720024D01*
X11993881Y-14720024D02*
X11974833Y-14710500D01*
X11974833Y-14710500D02*
X11965309Y-14700976D01*
X11965309Y-14700976D02*
X11955786Y-14681928D01*
X11955786Y-14681928D02*
X11946262Y-14643833D01*
X11946262Y-14643833D02*
X11946262Y-14596214D01*
X11946262Y-14596214D02*
X11955786Y-14558119D01*
X11955786Y-14558119D02*
X11965309Y-14539071D01*
X11965309Y-14539071D02*
X11974833Y-14529548D01*
X11974833Y-14529548D02*
X11993881Y-14520024D01*
X12146262Y-14720024D02*
X12146262Y-14586690D01*
X12146262Y-14605738D02*
X12155786Y-14596214D01*
X12155786Y-14596214D02*
X12174833Y-14586690D01*
X12174833Y-14586690D02*
X12203405Y-14586690D01*
X12203405Y-14586690D02*
X12222452Y-14596214D01*
X12222452Y-14596214D02*
X12231976Y-14615262D01*
X12231976Y-14615262D02*
X12231976Y-14720024D01*
X12231976Y-14615262D02*
X12241500Y-14596214D01*
X12241500Y-14596214D02*
X12260548Y-14586690D01*
X12260548Y-14586690D02*
X12289119Y-14586690D01*
X12289119Y-14586690D02*
X12308167Y-14596214D01*
X12308167Y-14596214D02*
X12317690Y-14615262D01*
X12317690Y-14615262D02*
X12317690Y-14720024D01*
X12412929Y-14720024D02*
X12412929Y-14586690D01*
X12412929Y-14605738D02*
X12422452Y-14596214D01*
X12422452Y-14596214D02*
X12441500Y-14586690D01*
X12441500Y-14586690D02*
X12470071Y-14586690D01*
X12470071Y-14586690D02*
X12489119Y-14596214D01*
X12489119Y-14596214D02*
X12498643Y-14615262D01*
X12498643Y-14615262D02*
X12498643Y-14720024D01*
X12498643Y-14615262D02*
X12508167Y-14596214D01*
X12508167Y-14596214D02*
X12527214Y-14586690D01*
X12527214Y-14586690D02*
X12555786Y-14586690D01*
X12555786Y-14586690D02*
X12574833Y-14596214D01*
X12574833Y-14596214D02*
X12584357Y-14615262D01*
X12584357Y-14615262D02*
X12584357Y-14720024D01*
X12974833Y-14510500D02*
X12803405Y-14767643D01*
X13231976Y-14520024D02*
X13251024Y-14520024D01*
X13251024Y-14520024D02*
X13270072Y-14529548D01*
X13270072Y-14529548D02*
X13279595Y-14539071D01*
X13279595Y-14539071D02*
X13289119Y-14558119D01*
X13289119Y-14558119D02*
X13298643Y-14596214D01*
X13298643Y-14596214D02*
X13298643Y-14643833D01*
X13298643Y-14643833D02*
X13289119Y-14681928D01*
X13289119Y-14681928D02*
X13279595Y-14700976D01*
X13279595Y-14700976D02*
X13270072Y-14710500D01*
X13270072Y-14710500D02*
X13251024Y-14720024D01*
X13251024Y-14720024D02*
X13231976Y-14720024D01*
X13231976Y-14720024D02*
X13212929Y-14710500D01*
X13212929Y-14710500D02*
X13203405Y-14700976D01*
X13203405Y-14700976D02*
X13193881Y-14681928D01*
X13193881Y-14681928D02*
X13184357Y-14643833D01*
X13184357Y-14643833D02*
X13184357Y-14596214D01*
X13184357Y-14596214D02*
X13193881Y-14558119D01*
X13193881Y-14558119D02*
X13203405Y-14539071D01*
X13203405Y-14539071D02*
X13212929Y-14529548D01*
X13212929Y-14529548D02*
X13231976Y-14520024D01*
X13384357Y-14700976D02*
X13393881Y-14710500D01*
X13393881Y-14710500D02*
X13384357Y-14720024D01*
X13384357Y-14720024D02*
X13374833Y-14710500D01*
X13374833Y-14710500D02*
X13384357Y-14700976D01*
X13384357Y-14700976D02*
X13384357Y-14720024D01*
X13584357Y-14720024D02*
X13470072Y-14720024D01*
X13527214Y-14720024D02*
X13527214Y-14520024D01*
X13527214Y-14520024D02*
X13508167Y-14548595D01*
X13508167Y-14548595D02*
X13489119Y-14567643D01*
X13489119Y-14567643D02*
X13470072Y-14577167D01*
X13765310Y-14520024D02*
X13670072Y-14520024D01*
X13670072Y-14520024D02*
X13660548Y-14615262D01*
X13660548Y-14615262D02*
X13670072Y-14605738D01*
X13670072Y-14605738D02*
X13689119Y-14596214D01*
X13689119Y-14596214D02*
X13736738Y-14596214D01*
X13736738Y-14596214D02*
X13755786Y-14605738D01*
X13755786Y-14605738D02*
X13765310Y-14615262D01*
X13765310Y-14615262D02*
X13774833Y-14634309D01*
X13774833Y-14634309D02*
X13774833Y-14681928D01*
X13774833Y-14681928D02*
X13765310Y-14700976D01*
X13765310Y-14700976D02*
X13755786Y-14710500D01*
X13755786Y-14710500D02*
X13736738Y-14720024D01*
X13736738Y-14720024D02*
X13689119Y-14720024D01*
X13689119Y-14720024D02*
X13670072Y-14710500D01*
X13670072Y-14710500D02*
X13660548Y-14700976D01*
X13841500Y-14520024D02*
X13974833Y-14520024D01*
X13974833Y-14520024D02*
X13889119Y-14720024D01*
X14146262Y-14520024D02*
X14051024Y-14520024D01*
X14051024Y-14520024D02*
X14041500Y-14615262D01*
X14041500Y-14615262D02*
X14051024Y-14605738D01*
X14051024Y-14605738D02*
X14070072Y-14596214D01*
X14070072Y-14596214D02*
X14117691Y-14596214D01*
X14117691Y-14596214D02*
X14136738Y-14605738D01*
X14136738Y-14605738D02*
X14146262Y-14615262D01*
X14146262Y-14615262D02*
X14155786Y-14634309D01*
X14155786Y-14634309D02*
X14155786Y-14681928D01*
X14155786Y-14681928D02*
X14146262Y-14700976D01*
X14146262Y-14700976D02*
X14136738Y-14710500D01*
X14136738Y-14710500D02*
X14117691Y-14720024D01*
X14117691Y-14720024D02*
X14070072Y-14720024D01*
X14070072Y-14720024D02*
X14051024Y-14710500D01*
X14051024Y-14710500D02*
X14041500Y-14700976D01*
X14231976Y-14520024D02*
X14231976Y-14558119D01*
X14308167Y-14520024D02*
X14308167Y-14558119D01*
X14603405Y-14796214D02*
X14593881Y-14786690D01*
X14593881Y-14786690D02*
X14574834Y-14758119D01*
X14574834Y-14758119D02*
X14565310Y-14739071D01*
X14565310Y-14739071D02*
X14555786Y-14710500D01*
X14555786Y-14710500D02*
X14546262Y-14662881D01*
X14546262Y-14662881D02*
X14546262Y-14624786D01*
X14546262Y-14624786D02*
X14555786Y-14577167D01*
X14555786Y-14577167D02*
X14565310Y-14548595D01*
X14565310Y-14548595D02*
X14574834Y-14529548D01*
X14574834Y-14529548D02*
X14593881Y-14500976D01*
X14593881Y-14500976D02*
X14603405Y-14491452D01*
X14670072Y-14539071D02*
X14679595Y-14529548D01*
X14679595Y-14529548D02*
X14698643Y-14520024D01*
X14698643Y-14520024D02*
X14746262Y-14520024D01*
X14746262Y-14520024D02*
X14765310Y-14529548D01*
X14765310Y-14529548D02*
X14774834Y-14539071D01*
X14774834Y-14539071D02*
X14784357Y-14558119D01*
X14784357Y-14558119D02*
X14784357Y-14577167D01*
X14784357Y-14577167D02*
X14774834Y-14605738D01*
X14774834Y-14605738D02*
X14660548Y-14720024D01*
X14660548Y-14720024D02*
X14784357Y-14720024D01*
X14851024Y-14520024D02*
X14974834Y-14520024D01*
X14974834Y-14520024D02*
X14908167Y-14596214D01*
X14908167Y-14596214D02*
X14936738Y-14596214D01*
X14936738Y-14596214D02*
X14955786Y-14605738D01*
X14955786Y-14605738D02*
X14965310Y-14615262D01*
X14965310Y-14615262D02*
X14974834Y-14634309D01*
X14974834Y-14634309D02*
X14974834Y-14681928D01*
X14974834Y-14681928D02*
X14965310Y-14700976D01*
X14965310Y-14700976D02*
X14955786Y-14710500D01*
X14955786Y-14710500D02*
X14936738Y-14720024D01*
X14936738Y-14720024D02*
X14879595Y-14720024D01*
X14879595Y-14720024D02*
X14860548Y-14710500D01*
X14860548Y-14710500D02*
X14851024Y-14700976D01*
X15212929Y-14720024D02*
X15212929Y-14520024D01*
X15298643Y-14720024D02*
X15298643Y-14615262D01*
X15298643Y-14615262D02*
X15289119Y-14596214D01*
X15289119Y-14596214D02*
X15270072Y-14586690D01*
X15270072Y-14586690D02*
X15241500Y-14586690D01*
X15241500Y-14586690D02*
X15222453Y-14596214D01*
X15222453Y-14596214D02*
X15212929Y-14605738D01*
X15422453Y-14720024D02*
X15403405Y-14710500D01*
X15403405Y-14710500D02*
X15393881Y-14700976D01*
X15393881Y-14700976D02*
X15384357Y-14681928D01*
X15384357Y-14681928D02*
X15384357Y-14624786D01*
X15384357Y-14624786D02*
X15393881Y-14605738D01*
X15393881Y-14605738D02*
X15403405Y-14596214D01*
X15403405Y-14596214D02*
X15422453Y-14586690D01*
X15422453Y-14586690D02*
X15451024Y-14586690D01*
X15451024Y-14586690D02*
X15470072Y-14596214D01*
X15470072Y-14596214D02*
X15479596Y-14605738D01*
X15479596Y-14605738D02*
X15489119Y-14624786D01*
X15489119Y-14624786D02*
X15489119Y-14681928D01*
X15489119Y-14681928D02*
X15479596Y-14700976D01*
X15479596Y-14700976D02*
X15470072Y-14710500D01*
X15470072Y-14710500D02*
X15451024Y-14720024D01*
X15451024Y-14720024D02*
X15422453Y-14720024D01*
X15603405Y-14720024D02*
X15584357Y-14710500D01*
X15584357Y-14710500D02*
X15574834Y-14691452D01*
X15574834Y-14691452D02*
X15574834Y-14520024D01*
X15755786Y-14710500D02*
X15736738Y-14720024D01*
X15736738Y-14720024D02*
X15698643Y-14720024D01*
X15698643Y-14720024D02*
X15679596Y-14710500D01*
X15679596Y-14710500D02*
X15670072Y-14691452D01*
X15670072Y-14691452D02*
X15670072Y-14615262D01*
X15670072Y-14615262D02*
X15679596Y-14596214D01*
X15679596Y-14596214D02*
X15698643Y-14586690D01*
X15698643Y-14586690D02*
X15736738Y-14586690D01*
X15736738Y-14586690D02*
X15755786Y-14596214D01*
X15755786Y-14596214D02*
X15765310Y-14615262D01*
X15765310Y-14615262D02*
X15765310Y-14634309D01*
X15765310Y-14634309D02*
X15670072Y-14653357D01*
X15841500Y-14710500D02*
X15860548Y-14720024D01*
X15860548Y-14720024D02*
X15898643Y-14720024D01*
X15898643Y-14720024D02*
X15917691Y-14710500D01*
X15917691Y-14710500D02*
X15927215Y-14691452D01*
X15927215Y-14691452D02*
X15927215Y-14681928D01*
X15927215Y-14681928D02*
X15917691Y-14662881D01*
X15917691Y-14662881D02*
X15898643Y-14653357D01*
X15898643Y-14653357D02*
X15870072Y-14653357D01*
X15870072Y-14653357D02*
X15851024Y-14643833D01*
X15851024Y-14643833D02*
X15841500Y-14624786D01*
X15841500Y-14624786D02*
X15841500Y-14615262D01*
X15841500Y-14615262D02*
X15851024Y-14596214D01*
X15851024Y-14596214D02*
X15870072Y-14586690D01*
X15870072Y-14586690D02*
X15898643Y-14586690D01*
X15898643Y-14586690D02*
X15917691Y-14596214D01*
X15993881Y-14796214D02*
X16003405Y-14786690D01*
X16003405Y-14786690D02*
X16022453Y-14758119D01*
X16022453Y-14758119D02*
X16031977Y-14739071D01*
X16031977Y-14739071D02*
X16041500Y-14710500D01*
X16041500Y-14710500D02*
X16051024Y-14662881D01*
X16051024Y-14662881D02*
X16051024Y-14624786D01*
X16051024Y-14624786D02*
X16041500Y-14577167D01*
X16041500Y-14577167D02*
X16031977Y-14548595D01*
X16031977Y-14548595D02*
X16022453Y-14529548D01*
X16022453Y-14529548D02*
X16003405Y-14500976D01*
X16003405Y-14500976D02*
X15993881Y-14491452D01*
X16355786Y-14796214D02*
X16346262Y-14786690D01*
X16346262Y-14786690D02*
X16327215Y-14758119D01*
X16327215Y-14758119D02*
X16317691Y-14739071D01*
X16317691Y-14739071D02*
X16308167Y-14710500D01*
X16308167Y-14710500D02*
X16298643Y-14662881D01*
X16298643Y-14662881D02*
X16298643Y-14624786D01*
X16298643Y-14624786D02*
X16308167Y-14577167D01*
X16308167Y-14577167D02*
X16317691Y-14548595D01*
X16317691Y-14548595D02*
X16327215Y-14529548D01*
X16327215Y-14529548D02*
X16346262Y-14500976D01*
X16346262Y-14500976D02*
X16355786Y-14491452D01*
X16431977Y-14586690D02*
X16431977Y-14720024D01*
X16431977Y-14605738D02*
X16441500Y-14596214D01*
X16441500Y-14596214D02*
X16460548Y-14586690D01*
X16460548Y-14586690D02*
X16489119Y-14586690D01*
X16489119Y-14586690D02*
X16508167Y-14596214D01*
X16508167Y-14596214D02*
X16517691Y-14615262D01*
X16517691Y-14615262D02*
X16517691Y-14720024D01*
X16641500Y-14720024D02*
X16622453Y-14710500D01*
X16622453Y-14710500D02*
X16612929Y-14700976D01*
X16612929Y-14700976D02*
X16603405Y-14681928D01*
X16603405Y-14681928D02*
X16603405Y-14624786D01*
X16603405Y-14624786D02*
X16612929Y-14605738D01*
X16612929Y-14605738D02*
X16622453Y-14596214D01*
X16622453Y-14596214D02*
X16641500Y-14586690D01*
X16641500Y-14586690D02*
X16670072Y-14586690D01*
X16670072Y-14586690D02*
X16689119Y-14596214D01*
X16689119Y-14596214D02*
X16698643Y-14605738D01*
X16698643Y-14605738D02*
X16708167Y-14624786D01*
X16708167Y-14624786D02*
X16708167Y-14681928D01*
X16708167Y-14681928D02*
X16698643Y-14700976D01*
X16698643Y-14700976D02*
X16689119Y-14710500D01*
X16689119Y-14710500D02*
X16670072Y-14720024D01*
X16670072Y-14720024D02*
X16641500Y-14720024D01*
X16765310Y-14586690D02*
X16841500Y-14586690D01*
X16793881Y-14520024D02*
X16793881Y-14691452D01*
X16793881Y-14691452D02*
X16803405Y-14710500D01*
X16803405Y-14710500D02*
X16822453Y-14720024D01*
X16822453Y-14720024D02*
X16841500Y-14720024D01*
X17060548Y-14586690D02*
X17060548Y-14786690D01*
X17060548Y-14596214D02*
X17079596Y-14586690D01*
X17079596Y-14586690D02*
X17117691Y-14586690D01*
X17117691Y-14586690D02*
X17136739Y-14596214D01*
X17136739Y-14596214D02*
X17146262Y-14605738D01*
X17146262Y-14605738D02*
X17155786Y-14624786D01*
X17155786Y-14624786D02*
X17155786Y-14681928D01*
X17155786Y-14681928D02*
X17146262Y-14700976D01*
X17146262Y-14700976D02*
X17136739Y-14710500D01*
X17136739Y-14710500D02*
X17117691Y-14720024D01*
X17117691Y-14720024D02*
X17079596Y-14720024D01*
X17079596Y-14720024D02*
X17060548Y-14710500D01*
X17270072Y-14720024D02*
X17251024Y-14710500D01*
X17251024Y-14710500D02*
X17241501Y-14691452D01*
X17241501Y-14691452D02*
X17241501Y-14520024D01*
X17431977Y-14720024D02*
X17431977Y-14615262D01*
X17431977Y-14615262D02*
X17422453Y-14596214D01*
X17422453Y-14596214D02*
X17403405Y-14586690D01*
X17403405Y-14586690D02*
X17365310Y-14586690D01*
X17365310Y-14586690D02*
X17346262Y-14596214D01*
X17431977Y-14710500D02*
X17412929Y-14720024D01*
X17412929Y-14720024D02*
X17365310Y-14720024D01*
X17365310Y-14720024D02*
X17346262Y-14710500D01*
X17346262Y-14710500D02*
X17336739Y-14691452D01*
X17336739Y-14691452D02*
X17336739Y-14672405D01*
X17336739Y-14672405D02*
X17346262Y-14653357D01*
X17346262Y-14653357D02*
X17365310Y-14643833D01*
X17365310Y-14643833D02*
X17412929Y-14643833D01*
X17412929Y-14643833D02*
X17431977Y-14634309D01*
X17498643Y-14586690D02*
X17574834Y-14586690D01*
X17527215Y-14520024D02*
X17527215Y-14691452D01*
X17527215Y-14691452D02*
X17536739Y-14710500D01*
X17536739Y-14710500D02*
X17555786Y-14720024D01*
X17555786Y-14720024D02*
X17574834Y-14720024D01*
X17717691Y-14710500D02*
X17698643Y-14720024D01*
X17698643Y-14720024D02*
X17660548Y-14720024D01*
X17660548Y-14720024D02*
X17641501Y-14710500D01*
X17641501Y-14710500D02*
X17631977Y-14691452D01*
X17631977Y-14691452D02*
X17631977Y-14615262D01*
X17631977Y-14615262D02*
X17641501Y-14596214D01*
X17641501Y-14596214D02*
X17660548Y-14586690D01*
X17660548Y-14586690D02*
X17698643Y-14586690D01*
X17698643Y-14586690D02*
X17717691Y-14596214D01*
X17717691Y-14596214D02*
X17727215Y-14615262D01*
X17727215Y-14615262D02*
X17727215Y-14634309D01*
X17727215Y-14634309D02*
X17631977Y-14653357D01*
X17898643Y-14720024D02*
X17898643Y-14520024D01*
X17898643Y-14710500D02*
X17879596Y-14720024D01*
X17879596Y-14720024D02*
X17841501Y-14720024D01*
X17841501Y-14720024D02*
X17822453Y-14710500D01*
X17822453Y-14710500D02*
X17812929Y-14700976D01*
X17812929Y-14700976D02*
X17803405Y-14681928D01*
X17803405Y-14681928D02*
X17803405Y-14624786D01*
X17803405Y-14624786D02*
X17812929Y-14605738D01*
X17812929Y-14605738D02*
X17822453Y-14596214D01*
X17822453Y-14596214D02*
X17841501Y-14586690D01*
X17841501Y-14586690D02*
X17879596Y-14586690D01*
X17879596Y-14586690D02*
X17898643Y-14596214D01*
X17974834Y-14796214D02*
X17984358Y-14786690D01*
X17984358Y-14786690D02*
X18003405Y-14758119D01*
X18003405Y-14758119D02*
X18012929Y-14739071D01*
X18012929Y-14739071D02*
X18022453Y-14710500D01*
X18022453Y-14710500D02*
X18031977Y-14662881D01*
X18031977Y-14662881D02*
X18031977Y-14624786D01*
X18031977Y-14624786D02*
X18022453Y-14577167D01*
X18022453Y-14577167D02*
X18012929Y-14548595D01*
X18012929Y-14548595D02*
X18003405Y-14529548D01*
X18003405Y-14529548D02*
X17984358Y-14500976D01*
X17984358Y-14500976D02*
X17974834Y-14491452D01*
M02*
